<svg width="24" height="23" viewBox="0 0 24 23" fill="none" xmlns="http://www.w3.org/2000/svg">
<path fill-rule="evenodd" clip-rule="evenodd" d="M0.772756 0.22153C0.613093 0.290461 0.381596 0.48714 0.258318 0.658585L0.0342102 0.970303L0.00942369 9.52781C-0.0179818 18.9587 -0.0238747 18.8456 0.556785 20.018C0.896314 20.7036 1.76197 21.6578 2.42999 22.083C2.68871 22.2477 3.18145 22.4909 3.525 22.6236L4.14971 22.8648L13.4564 22.8931C19.96 22.9128 22.8679 22.891 23.1113 22.8205C23.5415 22.696 23.9332 22.2119 23.9922 21.7318C24.0474 21.2835 23.8054 20.8057 23.3805 20.5241L23.0627 20.3135H14.1568C8.5041 20.3135 5.06681 20.279 4.74702 20.2191C3.89343 20.059 3.13075 19.4103 2.78561 18.5508C2.6787 18.2845 2.64671 16.6681 2.60743 9.55184C2.55467 -0.0227426 2.60266 0.648566 1.94418 0.281462C1.54806 0.060661 1.18814 0.0421992 0.772756 0.22153Z" fill="white"/>
<path fill-rule="evenodd" clip-rule="evenodd" d="M19.6765 14.3839C19.5084 14.282 18.8001 13.3619 17.9093 12.088C17.0916 10.9189 16.3887 9.92453 16.3472 9.87861C16.3048 9.83166 15.3352 10.4886 14.1392 11.3745C12.9663 12.2433 11.9148 13.0011 11.8025 13.0585C11.4283 13.2497 10.7874 13.1871 10.4784 12.9292C10.2328 12.7242 6.64181 7.69398 6.36121 7.16192C6.30247 7.05041 6.25439 6.77014 6.25439 6.53895C6.25439 6.20135 6.31136 6.05421 6.5437 5.79176C6.85797 5.43662 7.41235 5.21934 7.77404 5.30933C8.20243 5.41602 8.50277 5.75882 9.85218 7.68136C10.5956 8.74074 11.2845 9.70605 11.3829 9.82656L11.5618 10.0457L13.7706 8.39015C15.8036 6.86635 16.0155 6.73108 16.4329 6.69129C16.7379 6.66225 16.9802 6.6962 17.1731 6.79519C17.4226 6.92322 18.7044 8.65289 21.4397 12.5528C21.6815 12.8976 21.6951 13.5991 21.4666 13.945C21.0878 14.5183 20.2413 14.7259 19.6765 14.3839Z" fill="white"/>
</svg>
