<svg width="21" height="24" viewBox="0 0 21 24" fill="none" xmlns="http://www.w3.org/2000/svg">
<path opacity="0.8" fill-rule="evenodd" clip-rule="evenodd" d="M14.7264 0.136803C13.7712 0.381228 12.9413 0.847748 12.1499 1.58525C11.0309 2.62816 10.4481 3.82796 10.4439 5.09691L10.4424 5.5562L11.1564 5.50037C12.3996 5.40326 13.4738 4.79712 14.4039 3.66817C15.1818 2.72387 15.5167 1.91468 15.6356 0.691241C15.7029 -0.00140814 15.7015 -0.00685035 15.4631 0.00140664C15.331 0.00609811 14.9995 0.0669935 14.7264 0.136803ZM5.277 5.95076C3.24529 6.34127 1.4062 7.87707 0.572104 9.87996C-0.268235 11.8976 -0.179773 14.6004 0.817363 17.3787C1.54197 19.3975 2.85732 21.4469 4.29999 22.8041C5.655 24.0791 6.50138 24.2686 8.22835 23.684C10.5219 22.9076 11.2066 22.8827 13.1094 23.5062C15.8635 24.4088 16.9239 24.0429 18.8464 21.5269C19.5643 20.5875 20.3752 19.1998 20.7523 18.266L21 17.6525L20.3419 17.2937C19.9799 17.0964 19.3994 16.6538 19.0518 16.3103C18.0122 15.2827 17.5869 14.2227 17.589 12.6638C17.5908 11.2846 17.9012 10.4337 18.7586 9.458C19.0022 9.18064 19.4479 8.78487 19.7491 8.57845C20.0503 8.37202 20.2985 8.17001 20.3009 8.12957C20.3032 8.08903 19.9994 7.77208 19.6258 7.42519C18.8487 6.70364 18.0215 6.2815 16.8262 5.99654C15.3533 5.64534 14.2199 5.76169 12.1355 6.47836C11.4624 6.70974 10.8293 6.86813 10.5887 6.86512C10.3648 6.8624 9.76069 6.70862 9.24632 6.5234C7.4812 5.8878 6.40899 5.73317 5.277 5.95076Z" fill="#4188FF"/>
</svg>
