<svg width="25" height="19" viewBox="0 0 25 19" fill="none" xmlns="http://www.w3.org/2000/svg">
<path d="M7.03326 3.18429L7.03327 3.1843C7.08801 3.21942 7.14802 3.24996 7.33435 3.27462C7.52511 3.29987 7.83878 3.3177 8.39651 3.32994C9.51019 3.35438 11.5792 3.35636 15.5416 3.35636C19.5041 3.35636 21.573 3.35438 22.6867 3.32994C23.2445 3.3177 23.5581 3.29987 23.7489 3.27462C23.9352 3.24996 23.9952 3.21942 24.05 3.1843L24.104 3.26846L24.05 3.18429C24.6061 2.82752 24.7456 2.02002 24.338 1.47504C24.3166 1.4464 24.2978 1.42031 24.2806 1.39641C24.203 1.28877 24.1572 1.22521 24.0478 1.17102C23.907 1.1013 23.6599 1.05008 23.1291 1.01681C22.1643 0.956325 20.3187 0.956652 16.6169 0.957308C16.2689 0.957369 15.9043 0.957434 15.5226 0.957451C11.5638 0.957601 9.52427 0.959134 8.43729 0.984225C7.89281 0.996793 7.59228 1.01521 7.41051 1.0414C7.2349 1.06669 7.17789 1.09796 7.11728 1.13682L7.03326 3.18429ZM7.03326 3.18429C6.30574 2.71753 6.33429 1.63909 7.11728 1.13683L7.03326 3.18429ZM0.960416 8.8381L0.960422 8.8381C0.991443 8.81661 1.01692 8.80086 1.05921 8.78634C1.10397 8.77097 1.17075 8.75598 1.28386 8.74256C1.51087 8.71564 1.90563 8.69699 2.64368 8.68437C4.11755 8.65917 6.94269 8.65809 12.4887 8.65779C18.0714 8.65744 20.8961 8.65787 22.3637 8.68326C23.0987 8.69598 23.4887 8.71492 23.7133 8.74242C23.8251 8.7561 23.8915 8.77142 23.937 8.78727C23.9807 8.80247 24.0085 8.81921 24.0443 8.84252C24.1927 8.93902 24.3365 9.10711 24.4434 9.30088C24.5505 9.49484 24.6142 9.70293 24.6142 9.87379C24.6142 10.0378 24.5433 10.2453 24.4249 10.4393C24.3068 10.6329 24.1502 10.7991 23.9938 10.8873L24.043 10.9744L23.9938 10.8873C23.9343 10.9209 23.8581 10.9521 23.6021 10.9768C23.3447 11.0017 22.9168 11.019 22.1608 11.031C20.6501 11.0549 17.8425 11.0571 12.4999 11.0571C7.15737 11.0571 4.34977 11.0549 2.83909 11.031C2.08303 11.019 1.65515 11.0017 1.39774 10.9768C1.14175 10.9521 1.06553 10.9209 1.00605 10.8873L1.00604 10.8873C0.846752 10.7974 0.690218 10.6309 0.573114 10.436C0.455821 10.2408 0.385645 10.0297 0.385645 9.85709C0.385645 9.69918 0.449203 9.49848 0.557268 9.30589C0.664902 9.11406 0.810015 8.94224 0.960416 8.8381ZM24.0718 16.5439L24.1258 16.4597L24.0719 16.5439C24.6138 16.8915 24.746 17.6934 24.338 18.2391C24.3264 18.2547 24.3154 18.2695 24.3049 18.2837C24.2136 18.4068 24.158 18.4817 24.0526 18.5414C23.9325 18.6093 23.74 18.66 23.3501 18.6937C22.6134 18.7574 21.2299 18.7573 18.4467 18.7572C18.2902 18.7571 18.1294 18.7571 17.9639 18.7571C15.9409 18.7571 14.498 18.7489 13.5428 18.7308C13.065 18.7217 12.7102 18.7102 12.4663 18.696C12.3441 18.6889 12.2512 18.6812 12.1851 18.6731C12.152 18.669 12.127 18.665 12.1092 18.6612C12.0966 18.6585 12.0905 18.6565 12.0887 18.656C12.0884 18.6559 12.0882 18.6558 12.0882 18.6558C11.2265 18.1876 11.1326 17.0463 11.8755 16.5456C11.9402 16.5021 11.9921 16.4711 12.1205 16.446C12.2561 16.4195 12.4733 16.4004 12.8666 16.3874C13.6514 16.3614 15.1123 16.3598 17.9655 16.3592C20.8151 16.3586 22.2763 16.3595 23.0638 16.3852C23.4585 16.398 23.6779 16.4169 23.8163 16.4434C23.9479 16.4687 24.0034 16.5 24.0718 16.5439Z" fill="#4188FF" stroke="#F5F9FF" stroke-width="0.2"/>
</svg>
