<svg width="32" height="32" viewBox="0 0 32 32" fill="none" xmlns="http://www.w3.org/2000/svg">
<path fill-rule="evenodd" clip-rule="evenodd" d="M14.088 0.0732084C7.96496 0.844978 2.72426 5.11725 0.794857 10.9098C0.152766 12.8378 0 13.8151 0 15.9947C0 17.42 0.0620572 18.2798 0.216199 18.9924C1.16257 23.3646 3.50197 26.8674 7.0894 29.284C11.7348 32.4132 17.7203 32.872 22.774 30.486C26.5975 28.6806 29.6902 25.2857 31.1128 21.3323C32.2957 18.0445 32.2957 13.945 31.1128 10.6572C29.4694 6.08974 25.6421 2.33668 21.085 0.823995C20.4856 0.625026 19.5545 0.372599 19.0158 0.262935C17.8093 0.0172524 15.2987 -0.0792969 14.088 0.0732084ZM18.3754 2.13522C21.7917 2.73 24.8169 4.5121 26.998 7.21486C28.0522 8.5212 29.1943 10.7944 29.6518 12.4975C29.9572 13.6337 29.9875 13.9494 29.9875 15.9947C29.9875 18.04 29.9572 18.3557 29.6518 19.492C29.1943 21.195 28.0522 23.4682 26.998 24.7746C24.7973 27.5014 21.7921 29.2607 18.2937 29.8698C17.4213 30.0217 16.6812 30.0577 15.4285 30.0092C13.2149 29.9234 11.7507 29.5498 9.73571 28.5569C6.91462 27.1667 4.83057 25.1149 3.43679 22.3556C-0.07019 15.4124 2.70136 6.93408 9.61223 3.46392C12.3236 2.10249 15.4577 1.62736 18.3754 2.13522ZM14.2399 3.89896C10.2579 4.53059 6.80664 7.05461 5.04389 10.6239C4.08238 12.5708 3.8553 13.597 3.8553 15.9947C3.8553 18.3925 4.08238 19.4187 5.04389 21.3655C6.24225 23.7921 8.18316 25.7293 10.6115 26.9228C12.5352 27.8681 13.5828 28.0982 15.9915 28.1048C17.7038 28.1095 18.1458 28.0686 19.0484 27.8224C23.4745 26.615 26.751 23.273 27.8891 18.805C28.2259 17.4827 28.2259 14.5068 27.8891 13.1844C26.758 8.74378 23.4761 5.37792 19.1156 4.18673C18.3635 3.98127 17.6878 3.90508 16.3668 3.87685C15.4034 3.85624 14.4463 3.86611 14.2399 3.89896ZM18.766 6.13733C22.172 7.12268 24.7693 9.64957 25.7986 12.979C25.9441 13.45 26.0632 13.8855 26.0632 13.9469C26.0632 14.1598 23.8844 14.0672 22.8848 13.8121C21.571 13.4766 20.6875 12.9785 19.4518 11.8763C18.1408 10.7071 17.4099 10.394 15.9915 10.394C14.5899 10.394 13.837 10.7109 12.5936 11.8239C11.3745 12.9151 10.3707 13.4871 9.10876 13.8093C7.93606 14.1087 5.9197 14.161 5.9197 13.892C5.9197 13.5405 6.46433 12.0828 6.93088 11.186C7.53169 10.0306 8.44365 8.9059 9.46209 8.06369C10.7976 6.95931 13.1211 5.98345 14.928 5.76787C15.8551 5.6572 17.7305 5.83769 18.766 6.13733ZM16.9868 12.4871C17.2201 12.5844 17.8758 13.065 18.444 13.5551C20.3829 15.2277 22.0642 15.8807 24.7864 16.0184L26.3315 16.0966L26.2533 16.7326C26.0878 18.0795 26.1165 18.0325 25.5255 17.9182C24.3788 17.6966 22.685 17.9197 21.4736 18.4519C18.7544 19.6464 16.9298 22.3605 16.9298 25.2109C16.9298 26.2639 16.8996 26.2991 15.9915 26.2991C15.0834 26.2991 15.0531 26.2639 15.0531 25.2109C15.0531 22.7989 13.7374 20.4369 11.6302 19.0663C10.1769 18.121 8.19217 17.6474 6.69429 17.8882C5.8066 18.0309 5.87428 18.1078 5.73203 16.7947L5.65633 16.096L7.13294 16.0194C9.85132 15.8787 11.6158 15.2078 13.4768 13.6076C14.0806 13.0884 14.7527 12.5863 14.9703 12.4917C15.4879 12.2669 16.4537 12.2646 16.9868 12.4871ZM15.1229 14.238C13.961 14.668 13.275 15.5538 13.2005 16.72C13.0908 18.44 14.2872 19.7305 15.9915 19.7305C17.5956 19.7305 18.8066 18.5264 18.8066 16.9315C18.8066 16.1956 18.6078 15.6592 18.1217 15.0837C17.4203 14.2532 16.0929 13.8789 15.1229 14.238ZM16.6705 16.3863C16.8131 16.5673 16.9298 16.8126 16.9298 16.9315C16.9298 17.3504 16.4411 17.8058 15.9915 17.8058C15.5418 17.8058 15.0531 17.3504 15.0531 16.9315C15.0531 16.5126 15.5418 16.0572 15.9915 16.0572C16.2959 16.0572 16.4824 16.1476 16.6705 16.3863ZM9.15706 20.0395C10.218 20.3692 10.9144 20.8083 11.6494 21.6111C12.5994 22.6487 13.1764 24.1037 13.1764 25.4613C13.1764 25.7964 13.148 25.8199 12.8323 25.7447C12.1163 25.5742 10.577 24.7585 9.68142 24.0747C9.16982 23.6842 8.42088 22.9498 8.01713 22.4425C7.33988 21.5917 6.54528 20.2368 6.54528 19.9328C6.54528 19.7108 8.33467 19.784 9.15706 20.0395ZM25.4377 19.9328C25.4377 20.2368 24.6431 21.5917 23.9658 22.4425C23.5621 22.9498 22.8131 23.6842 22.3015 24.0747C21.406 24.7585 19.8667 25.5742 19.1506 25.7447C18.8243 25.8224 18.8066 25.8036 18.8066 25.3821C18.8066 24.0811 19.389 22.6429 20.3336 21.6111C21.4349 20.4081 22.7796 19.8226 24.468 19.811C25.0533 19.8068 25.4377 19.8552 25.4377 19.9328Z" fill="#C2D1E9"/>
</svg>
