<svg width="27" height="27" viewBox="0 0 27 27" fill="none" xmlns="http://www.w3.org/2000/svg">
<path fill-rule="evenodd" clip-rule="evenodd" d="M11.8939 0.0619244C11.475 0.114777 10.7455 0.256772 10.2729 0.377352C5.07712 1.70299 1.34687 5.62442 0.18931 10.9776C-0.0631035 12.1452 -0.0631035 14.8737 0.18931 16.0413C0.801607 18.8728 2.03718 21.1707 3.99104 23.1116C5.86614 24.9743 8.2048 26.2145 10.9664 26.8108C12.1348 27.0631 14.8652 27.0631 16.0336 26.8108C21.6339 25.6015 25.6006 21.6377 26.8107 16.0413C27.0631 14.8737 27.0631 12.1452 26.8107 10.9776C25.6003 5.37999 21.5834 1.36604 16.0487 0.223647C15.0379 0.0150847 12.9194 -0.0674115 11.8939 0.0619244ZM12.3915 2.75604C12.3915 3.68776 12.759 4.1667 13.4773 4.17092C14.2467 4.17546 14.6085 3.69652 14.6085 2.67343C14.6085 2.23025 14.6354 2.1621 14.7932 2.20567C14.8949 2.23363 15.2155 2.28891 15.5058 2.32847C17.4824 2.59758 20.2385 4.06311 21.6957 5.61978C23.2089 7.23648 24.4358 9.64881 24.6889 11.5051C24.7285 11.7952 24.7838 12.1156 24.8118 12.2172C24.856 12.3772 24.7836 12.4018 24.2682 12.4018C23.3284 12.4018 22.8493 12.7671 22.8451 13.4868C22.8406 14.2556 23.3199 14.6172 24.3437 14.6172C24.7872 14.6172 24.8554 14.6441 24.8118 14.8018C24.7838 14.9034 24.7285 15.2238 24.6889 15.5139C24.4196 17.489 22.953 20.2433 21.3952 21.6994C19.7774 23.2116 17.3634 24.4376 15.5058 24.6905C15.2155 24.7301 14.8949 24.7853 14.7932 24.8133C14.6354 24.8569 14.6085 24.7887 14.6085 24.3455C14.6085 23.3224 14.2467 22.8435 13.4773 22.848C12.7571 22.8523 12.3915 23.331 12.3915 24.2701C12.3915 24.7851 12.3669 24.8575 12.2068 24.8133C12.1051 24.7853 11.7845 24.7301 11.4942 24.6905C9.63662 24.4376 7.22259 23.2116 5.60475 21.6994C4.04699 20.2433 2.58043 17.489 2.31113 15.5139C2.27154 15.2238 2.21622 14.9034 2.18825 14.8018C2.14465 14.6441 2.21284 14.6172 2.65634 14.6172C3.66863 14.6172 4.1572 14.2566 4.1572 13.5095C4.1572 12.7624 3.66863 12.4018 2.65634 12.4018C2.21284 12.4018 2.14465 12.3749 2.18825 12.2172C2.21622 12.1156 2.27154 11.7952 2.31113 11.5051C2.58043 9.52992 4.04699 6.77568 5.60475 5.31954C7.42338 3.61961 9.87521 2.47141 12.3124 2.17835C12.3559 2.17318 12.3915 2.43312 12.3915 2.75604ZM12.9999 6.34273C12.415 6.65995 12.3915 6.81587 12.3915 10.3974C12.3915 13.0328 12.4211 13.7343 12.542 13.9631C12.6246 14.1198 13.7079 15.2568 14.9492 16.4897C16.9579 18.4849 17.2438 18.7314 17.5489 18.7314C18.2636 18.7314 18.7256 18.2658 18.7256 17.5457C18.7256 17.2555 18.467 16.9542 16.667 15.1473L14.6085 13.0808V10.0986C14.6085 6.8221 14.5793 6.64814 13.9785 6.33767C13.5959 6.13997 13.3718 6.14113 12.9999 6.34273Z" fill="#4188FF"/>
</svg>
