<svg width="20" height="21" viewBox="0 0 20 21" fill="none" xmlns="http://www.w3.org/2000/svg">
<path fill-rule="evenodd" clip-rule="evenodd" d="M2.86593 0.27704C2.66554 0.528091 2.64727 0.61052 2.67169 1.15235L2.69876 1.75053L1.60521 1.75027C1.0037 1.75018 0.451109 1.77459 0.377197 1.80443C0.165429 1.8901 -0.000248859 2.3159 2.80613e-07 2.7739C0.000747699 4.17248 0.410915 6.06696 0.971727 7.26289C1.48811 8.36387 2.46158 9.42276 3.40466 9.90929C4.08921 10.2625 4.90996 10.4972 5.46703 10.4992C5.80387 10.5005 5.86632 10.5423 6.43618 11.1487C6.77128 11.5052 7.25394 11.9628 7.50881 12.1655L7.97221 12.5342V13.9675V15.4008H7.2316C6.82426 15.4008 6.43045 15.4253 6.35654 15.4552C6.09993 15.5589 5.9791 15.9744 5.9791 16.7528V17.5009H5.40458C5.08859 17.5009 4.76952 17.5254 4.69561 17.5553C4.40478 17.6729 4.31817 18.062 4.31817 19.251C4.31817 20.44 4.40478 20.8292 4.69561 20.9468C4.87126 21.0177 15.1424 21.0177 15.3181 20.9468C15.6089 20.8292 15.6955 20.44 15.6955 19.251C15.6955 18.062 15.6089 17.6729 15.3181 17.5553C15.2442 17.5254 14.9251 17.5009 14.6091 17.5009H14.0346V16.7528C14.0346 15.9744 13.9138 15.5589 13.6572 15.4552C13.5832 15.4253 13.1894 15.4008 12.7821 15.4008H12.0415V13.9675V12.5342L12.5037 12.1665C12.758 11.9642 13.2433 11.5066 13.582 11.1496C14.1544 10.5465 14.2231 10.5005 14.5523 10.4992C15.5605 10.4956 16.8753 9.9064 17.7425 9.06951C19.0582 7.80016 19.8119 5.86054 19.9815 3.30803C20.0419 2.3978 19.9581 1.99344 19.6759 1.83427C19.5937 1.78798 19.0259 1.75009 18.4139 1.75009H17.3012L17.3389 1.27284C17.3854 0.680698 17.3231 0.405584 17.0906 0.177459C16.9121 0.00210011 16.8265 0 9.99854 0H3.08725L2.86593 0.27704ZM15.9073 2.07824C15.7111 4.4168 14.9509 6.78669 13.8171 8.59514C13.3358 9.36265 11.929 10.8791 11.2848 11.3246C11.0284 11.5019 10.7761 11.7452 10.7242 11.8654C10.6642 12.0042 10.6297 12.6893 10.6297 13.7423V15.4008H10.0068H9.384V13.7423C9.384 12.6893 9.34954 12.0042 9.28949 11.8654C9.23759 11.7452 8.98529 11.5019 8.72893 11.3246C8.08474 10.8791 6.67785 9.36265 6.19659 8.59514C5.06276 6.78669 4.30264 4.4168 4.1064 2.07824L4.04951 1.40007H10.0068H15.9642L15.9073 2.07824ZM2.85763 3.34705C3.23773 5.3461 3.6229 6.5989 4.2607 7.91068C4.49688 8.39668 4.70284 8.82309 4.71828 8.85836C4.76936 8.97518 4.04104 8.66226 3.65737 8.40255C2.55941 7.65937 1.83009 6.25684 1.53063 4.31284C1.33829 3.06433 1.29511 3.15017 2.11586 3.15017C2.77981 3.15017 2.82233 3.16146 2.85763 3.34705ZM18.6022 3.35747C18.6022 3.47148 18.5451 3.91443 18.4754 4.34189C18.1534 6.31696 17.452 7.66086 16.3563 8.40255C15.9727 8.66226 15.2443 8.97518 15.2954 8.85836C15.3109 8.82309 15.5168 8.39668 15.753 7.91068C16.2739 6.83936 16.701 5.57413 16.9344 4.41093C17.0301 3.93412 17.1276 3.4553 17.151 3.34705C17.191 3.16189 17.2355 3.15017 17.8978 3.15017C18.5834 3.15017 18.6022 3.15568 18.6022 3.35747ZM12.6228 17.1509V17.5009H10.0068H7.39089V17.1509V16.8009H10.0068H12.6228V17.1509ZM14.2837 19.251V19.601H10.0068H5.72996V19.251V18.901H10.0068H14.2837V19.251Z" fill="#FF931E"/>
</svg>
