<svg width="19" height="17" viewBox="0 0 19 17" fill="none" xmlns="http://www.w3.org/2000/svg">
<path fill-rule="evenodd" clip-rule="evenodd" d="M9.13241 0.108341C8.53716 0.35179 8.56364 0.102726 8.56364 5.45382C8.56364 8.11684 8.53493 10.2957 8.4997 10.2957C8.46457 10.2957 7.68971 9.59807 6.77779 8.74537C5.16279 7.23532 5.11009 7.19501 4.75098 7.19501C4.1147 7.19501 3.68139 7.73847 3.84904 8.32635C3.89836 8.49915 4.72431 9.33099 6.49099 10.9871L9.06125 13.3965H9.5H9.93875L12.509 10.9871C14.2757 9.33099 15.1016 8.49915 15.151 8.32635C15.3186 7.73847 14.8853 7.19501 14.249 7.19501C13.8899 7.19501 13.8372 7.23532 12.2222 8.74537C11.3103 9.59807 10.5354 10.2957 10.5003 10.2957C10.4651 10.2957 10.4364 8.11684 10.4364 5.45382C10.4364 0.0837867 10.4653 0.347181 9.84788 0.104738C9.49064 -0.0355491 9.48413 -0.0354653 9.13241 0.108341ZM0.3921 15.3886C-0.0966788 15.7607 -0.131992 16.3036 0.305866 16.7151L0.609067 17H9.5H18.3909L18.6941 16.7151C19.132 16.3036 19.0967 15.7607 18.6079 15.3886C18.4305 15.2536 17.8165 15.2438 9.5 15.2438C1.18354 15.2438 0.569472 15.2536 0.3921 15.3886Z" fill="white"/>
</svg>
