<svg width="15" height="14" viewBox="0 0 15 14" fill="none" xmlns="http://www.w3.org/2000/svg">
<path fill-rule="evenodd" clip-rule="evenodd" d="M6.69968 0.113124C6.26043 0.256765 5.83653 0.539434 5.52817 0.894494C5.22162 1.24728 0.268249 10.0235 0.137659 10.445C-0.0875237 11.172 -0.03894 11.7754 0.301848 12.4853C0.569059 13.0419 0.991913 13.4703 1.55507 13.7551L1.99543 13.9777L7.34894 13.9941C12.1324 14.0089 12.7373 14.0004 13.0298 13.914C13.5199 13.7694 13.8776 13.5478 14.2284 13.1716C14.9313 12.4179 15.1689 11.4197 14.8795 10.4362C14.7657 10.0494 9.7762 1.23207 9.4782 0.8912C8.95882 0.29706 8.28105 -0.00566766 7.48305 8.03431e-05C7.21859 0.00199634 6.89817 0.0482199 6.69968 0.113124ZM7.95753 1.32565C8.46227 1.48037 8.55792 1.62665 11.0822 6.1041C12.3911 8.42576 13.5254 10.4532 13.6029 10.6096C13.7746 10.956 13.7934 11.468 13.6481 11.8394C13.5255 12.1529 13.0682 12.5835 12.7565 12.679C12.3991 12.7886 2.4942 12.7752 2.1917 12.6648C1.39773 12.375 1.02042 11.3938 1.4047 10.6181C1.48565 10.4546 2.62222 8.42234 3.93035 6.10189C6.41532 1.69413 6.55246 1.48199 7.01553 1.33044C7.28485 1.24231 7.67908 1.24033 7.95753 1.32565ZM7.32822 4.29426C7.11961 4.34342 6.87803 4.5601 6.78912 4.77775C6.71197 4.96666 6.71361 5.20119 6.80381 6.87948C6.86726 8.06076 6.93399 8.84123 6.98182 8.96254C7.0297 9.0839 7.13494 9.19389 7.26307 9.25634C7.44547 9.34532 7.49212 9.34687 7.69067 9.27047C7.9858 9.15689 8.11821 8.88757 8.11832 8.40091C8.11838 8.19871 8.15941 7.35495 8.20952 6.52592C8.27912 5.37452 8.28491 4.96989 8.23405 4.81224C8.12347 4.46951 7.67428 4.21265 7.32822 4.29426ZM7.18306 9.92126C6.93001 10.0512 6.71355 10.373 6.71384 10.6186C6.71414 10.8617 6.89887 11.1647 7.13746 11.3135C7.38816 11.4699 7.64525 11.4644 7.89027 11.2975C8.43084 10.9292 8.37412 10.1492 7.78854 9.89892C7.53584 9.79091 7.42896 9.79486 7.18306 9.92126Z" fill="#FF931E"/>
</svg>
