<svg width="17" height="21" viewBox="0 0 17 21" fill="none" xmlns="http://www.w3.org/2000/svg">
<path fill-rule="evenodd" clip-rule="evenodd" d="M2.99965 0.120905C1.46323 0.457936 0.309614 1.70463 0.0456369 3.31333C-0.2194 4.92882 0.690383 6.58801 2.24385 7.32211C2.71544 7.54486 2.98569 7.61017 3.56285 7.64076C5.31466 7.73363 6.75699 6.75608 7.38804 5.04827L7.47868 4.80294H10.2036C13.1884 4.80294 13.5093 4.84505 14.1608 5.32187C14.351 5.46112 14.6176 5.78121 14.7533 6.03322C15.2714 6.99543 15.1312 8.06129 14.3878 8.8119C13.6627 9.54421 13.7708 9.53101 8.48768 9.53101C5.45751 9.53101 3.70862 9.56491 3.40145 9.62959C1.11957 10.1101 -0.383635 12.4074 0.0938734 14.6842C0.465102 16.4541 1.90708 17.8376 3.64501 18.0912C3.99363 18.1421 6.30157 18.1815 8.99063 18.1825L13.7229 18.1843L12.9883 18.9259C12.3706 19.5498 12.2538 19.7136 12.2538 19.9563C12.2538 20.6101 12.8027 21.102 13.3979 20.9819C13.5871 20.9437 14.1085 20.5124 15.1146 19.5623C16.7877 17.9821 16.902 17.849 16.9781 17.3938C17.0808 16.7807 16.853 16.4228 15.6249 15.2673C13.4942 13.2628 13.626 13.367 13.2205 13.367C12.7443 13.367 12.2538 13.818 12.2538 14.256C12.2538 14.6702 12.3788 14.8586 13.1258 15.5705L13.7998 16.213L8.9348 16.2173C3.61745 16.2221 3.53767 16.2153 2.83736 15.7027C2.64715 15.5635 2.38052 15.2434 2.24482 14.9914C1.72677 14.0292 1.86697 12.9633 2.61031 12.2127C3.33545 11.4804 3.2274 11.4936 8.51047 11.4936C11.5312 11.4936 13.2904 11.4596 13.5967 11.3953C15.8728 10.9175 17.3809 8.61278 16.9043 6.34046C16.5382 4.595 15.1191 3.21511 13.4023 2.93527C13.0864 2.88379 11.6087 2.84142 10.1184 2.84106L7.4088 2.84035L7.35156 2.57709C7.27028 2.20357 6.69241 1.33361 6.28814 0.97615C5.83387 0.574443 4.97983 0.179069 4.33685 0.0727323C3.70739 -0.0313745 3.69148 -0.0308395 2.99965 0.120905ZM4.2584 2.04675C4.77522 2.17815 5.31218 2.65604 5.49948 3.15124C5.9716 4.39945 5.10599 5.69503 3.80006 5.69503C3.18456 5.69503 2.83241 5.53954 2.43123 5.09055C1.86953 4.46199 1.77915 3.76973 2.16028 3.01698C2.42576 2.49279 2.67083 2.27298 3.20346 2.08136C3.63326 1.92676 3.76888 1.9223 4.2584 2.04675Z" fill="#FF931E"/>
</svg>
