<svg width="19" height="19" viewBox="0 0 19 19" fill="none" xmlns="http://www.w3.org/2000/svg">
<path opacity="0.8" fill-rule="evenodd" clip-rule="evenodd" d="M3.57339 0.0653337C1.82853 0.319907 0.48267 1.59773 0.128003 3.33662C0.044043 3.7482 0.0298076 4.2176 0.0294589 6.58604L0.029052 9.35441L0.261468 9.35191C2.69998 9.32568 4.76743 9.10759 5.7473 8.77329C7.78837 8.07694 8.82681 6.60976 9.1487 3.96745C9.23795 3.23486 9.3498 1.28085 9.35323 0.393633L9.35474 0.00023322L6.63838 0.00734366C5.14435 0.0112485 3.76514 0.0373586 3.57339 0.0653337ZM9.6294 0.335235C9.68157 1.66027 9.76745 3.37596 9.78767 3.49712C9.80104 3.57726 9.83991 3.87887 9.87401 4.16736C10.0487 5.64503 10.4846 6.70342 11.2564 7.52408C12.2316 8.56103 13.413 9.01288 15.659 9.20807C16.731 9.3012 18.9037 9.37813 18.9614 9.32498C18.9881 9.30039 18.998 8.02495 18.9832 6.49069C18.9542 3.46466 18.9347 3.25263 18.6164 2.50634C18.3863 1.96683 18.0835 1.53752 17.6388 1.12023C17.1773 0.687197 16.7978 0.459608 16.211 0.264015C15.5081 0.0297237 15.1037 0.00262285 12.289 0.00128238L9.61621 0L9.6294 0.335235ZM0.000348432 12.1956C0.000697056 14.9888 0.0425321 15.5416 0.309055 16.2782C0.75448 17.509 1.68478 18.3876 2.93425 18.7575C3.62656 18.9624 4.23224 19 6.84023 19H9.35474L9.35422 18.4609C9.35364 17.8781 9.25416 15.8259 9.21413 15.5715C9.20065 15.4858 9.17299 15.2452 9.15265 15.0369C8.92181 12.6705 7.97338 11.1488 6.24734 10.3756C5.80476 10.1773 5.12872 9.99568 4.39644 9.87836C3.75904 9.7762 1.44028 9.61814 0.566514 9.61726L0 9.61668L0.000348432 12.1956ZM16.4043 9.70678C13.7294 9.87854 12.4686 10.2666 11.4338 11.2367C10.2219 12.3729 9.78355 13.9383 9.6678 17.5428C9.64567 18.2318 9.62498 18.8351 9.6219 18.8833C9.61691 18.9597 9.93165 18.973 12.0856 18.988C13.6481 18.9988 14.7675 18.981 15.1334 18.9396C16.2597 18.8119 17.0514 18.4508 17.7508 17.7454C18.442 17.0484 18.8041 16.2651 18.9359 15.1826C18.9732 14.8761 18.9998 13.6099 18.9998 12.1374L19 9.61668L18.2882 9.62408C17.8967 9.62816 17.049 9.6654 16.4043 9.70678Z" fill="#4188FF"/>
</svg>
