<svg width="33" height="36" viewBox="0 0 33 36" fill="none" xmlns="http://www.w3.org/2000/svg">
<path fill-rule="evenodd" clip-rule="evenodd" d="M18.7182 0.224788C17.82 0.505281 16.5133 1.70202 16.019 2.6967C15.5085 3.72444 15.4503 5.43257 15.8914 6.43643C16.9922 8.94067 20.1267 10.0871 22.5952 8.88831C26.1427 7.16586 26.1453 2.19137 22.5995 0.469646C21.5335 -0.0479912 19.918 -0.149939 18.7182 0.224788ZM28.0076 6.52037C27.6643 6.68551 26.6302 7.84275 25.3849 9.45518C24.2541 10.9194 23.2401 12.1174 23.1315 12.1174C23.0229 12.1174 21.3464 11.4139 19.4059 10.5542C17.4654 9.69434 15.6382 8.94691 15.3455 8.89327C14.5143 8.74081 6.67476 9.83174 6.13771 10.1745C5.8853 10.3358 5.53713 10.7342 5.36427 11.0601C4.9899 11.7654 3.59722 15.7552 3.59722 16.1222C3.59722 16.6621 4.25133 17.6861 4.80742 18.0164C5.13505 18.2111 5.73826 18.3617 6.192 18.3621C7.37167 18.3632 8.14775 17.5831 8.83523 15.7048C9.26502 14.5307 9.4622 14.216 9.83016 14.1157C10.4134 13.957 11.8915 13.9192 11.8915 14.063C11.8915 14.1229 10.9246 16.1273 9.74307 18.5175C8.56133 20.9077 7.46498 23.3179 7.30663 23.8735C7.14829 24.4292 6.92585 25.2291 6.81256 25.6511C6.63046 26.3283 6.24478 26.7224 3.52822 29.0067C1.83525 30.4303 0.352277 31.8039 0.232764 32.0596C-0.34067 33.2863 0.184318 34.9199 1.38058 35.6306C2.06881 36.0396 3.39042 36.1164 4.03379 35.7849C4.26019 35.668 6.11094 34.1822 8.14624 32.4827L11.847 29.3928L12.2715 27.7194L12.6958 26.046L13.789 27.1L14.8821 28.1542L13.7496 29.5499C12.0419 31.654 11.68 32.2295 11.5721 33.0132C11.4457 33.9323 12.0509 35.1384 12.8887 35.6361C13.6838 36.1085 15.0026 36.1072 15.8003 35.6333C16.4141 35.2685 20.1906 30.7699 20.7904 29.6889C21.1948 28.9602 21.2208 27.384 20.843 26.503C20.6862 26.1371 19.7452 25.0317 18.7518 24.0465L16.9457 22.2552L18.4581 19.2069C19.2899 17.5303 20.0121 16.1586 20.0628 16.1586C20.1135 16.1586 20.7746 16.4479 21.5317 16.8015C23.1969 17.5792 24.2748 17.6442 25.3121 17.0302C25.7666 16.7611 26.9623 15.3781 28.7524 13.0507C31.3758 9.63997 31.4961 9.44563 31.4961 8.62086C31.4961 6.83044 29.6604 5.72518 28.0076 6.52037ZM26.1223 27.0607C24.3719 27.8552 23.3683 29.4046 23.3683 31.3129C23.3683 36.4217 30.4648 37.8258 32.6522 33.1498C32.8614 32.7024 32.9975 31.9803 33 31.303C33.0128 27.861 29.3447 25.5985 26.1223 27.0607Z" fill="#4188FF"/>
</svg>
