<svg width="21" height="22" viewBox="0 0 21 22" fill="none" xmlns="http://www.w3.org/2000/svg">
<path opacity="0.8" fill-rule="evenodd" clip-rule="evenodd" d="M1.8892 0.141147C1.64756 0.221888 1.4618 0.326731 1.47639 0.374074C1.51672 0.504998 11.5361 9.54136 11.6409 9.54136C11.6912 9.54136 12.4832 8.80436 13.401 7.90364C14.737 6.59251 15.0434 6.2494 14.9379 6.18269C14.2735 5.76297 3.98094 0.257266 3.64659 0.142783C3.09231 -0.0470187 2.45376 -0.0476214 1.8892 0.141147ZM0.141383 1.71C0.0146743 2.02023 0 2.98275 0 11.0047C0 19.0266 0.0146743 19.9891 0.141383 20.2994C0.219059 20.4897 0.308159 20.6454 0.339353 20.6454C0.370459 20.6454 2.70279 18.3854 5.52217 15.6232L10.6483 10.6011L5.53834 5.98247C2.72783 3.44232 0.395589 1.36397 0.355521 1.36397C0.315452 1.36397 0.219059 1.51968 0.141383 1.71ZM14.4742 8.74738L12.6502 10.5358L14.5984 12.2981C15.67 13.2674 16.6945 14.1858 16.8751 14.339L17.2036 14.6175L18.5531 13.8823C20.028 13.0786 20.4529 12.7367 20.7832 12.0874C20.9575 11.7449 21.0007 11.5298 21 11.0093C20.999 10.2293 20.7674 9.67194 20.2375 9.17424C19.9533 8.90731 16.5374 6.95903 16.3536 6.95903C16.3232 6.95903 15.4775 7.76377 14.4742 8.74738ZM6.47143 16.587L1.30074 21.6529L1.68279 21.8046C2.21783 22.0171 3.02878 22.0629 3.53377 21.9092C4.03076 21.7579 15.8309 15.3929 15.7965 15.2946C15.7763 15.2368 11.7003 11.5211 11.6571 11.5211C11.6489 11.5211 9.31534 13.8007 6.47143 16.587Z" fill="#4188FF"/>
</svg>
