<svg width="45" height="45" viewBox="0 0 45 45" fill="none" xmlns="http://www.w3.org/2000/svg">
<rect opacity="0.1" width="45" height="45" rx="5" fill="white"/>
<path opacity="0.3" fill-rule="evenodd" clip-rule="evenodd" d="M15.1329 10.49C14.1517 11.0021 11.382 14.2187 10.6167 15.7348L10.2856 16.3907L10.5064 17.5155C11.9031 24.6341 20.2196 33.0663 27.3266 34.5697C28.3844 34.7935 28.7047 34.7692 29.3659 34.4148C30.9926 33.5428 34.053 30.8101 34.5335 29.8005C34.7449 29.3561 34.7558 29.2656 34.6437 28.8833C34.4728 28.2999 33.8326 27.7243 32.1932 26.6799C30.5217 25.615 28.97 24.7931 28.3246 24.6309C27.4382 24.4081 26.9883 24.6876 25.7137 26.2532L25.3527 26.6967L24.5926 26.3785C22.82 25.6365 20.922 24.1059 19.8617 22.5636C19.2692 21.7016 18.4049 19.9761 18.448 19.741C18.4639 19.6539 18.8534 19.2498 19.3135 18.8432C19.7736 18.4366 20.2235 17.9611 20.3133 17.7866C20.6635 17.1056 20.4106 16.2295 19.3206 14.3486C18.5301 12.9843 17.2057 10.9989 16.8932 10.7094C16.378 10.2323 15.7716 10.1567 15.1329 10.49ZM22.8002 11.272C22.4953 11.5786 22.4359 11.9267 22.6254 12.2952C22.8075 12.6492 22.8481 12.6622 24.2436 12.8149C28.2044 13.248 31.2983 16.1053 32.0625 20.0357C32.1425 20.447 32.2079 21.011 32.2079 21.2891C32.2079 21.8372 32.4077 22.3339 32.6685 22.4346C33.2046 22.6415 33.7551 22.372 33.8886 21.8373C33.9793 21.4738 33.7619 19.7379 33.5117 18.8294C32.3311 14.5406 28.4064 11.3429 24.039 11.1112C23.092 11.061 22.9979 11.0732 22.8002 11.272ZM16.4225 12.8426C17.2697 14.1142 17.7665 14.959 18.3214 16.0708L18.8248 17.0796L18.1283 17.6526C17.2281 18.3932 16.6023 19.0793 16.6023 19.3258C16.6023 19.7256 17.0442 20.9496 17.5405 21.9247C19.0134 24.818 21.5354 27.0749 24.4872 28.1408C25.6313 28.5539 25.8488 28.5199 26.528 27.8223C26.8417 27.5001 27.2864 27.0071 27.5161 26.7269L27.9338 26.2173L28.6268 26.5589C29.8109 27.1425 31.3313 28.0699 32.8553 29.1384C32.9127 29.1785 32.884 29.3103 32.7847 29.4626C32.5154 29.8762 30.5439 31.6178 29.4836 32.379L28.5056 33.0811L27.787 32.9434C21.4007 31.7198 13.3019 23.5518 12.1292 17.152L12.013 16.5176L12.4279 15.9032C13.0888 14.9247 14.0204 13.7836 14.9136 12.8587C15.3687 12.3875 15.7684 12.0019 15.8017 12.0019C15.8351 12.0019 16.1145 12.3802 16.4225 12.8426ZM22.7997 15.3486C22.4953 15.6547 22.436 16.0029 22.6254 16.3713C22.7972 16.7056 22.8188 16.7137 23.9998 16.8897C25.0453 17.0454 25.9051 17.4723 26.6801 18.2207C27.5867 19.0963 28.145 20.3048 28.1521 21.4075C28.1565 22.1053 28.4675 22.4979 29.0159 22.4979C29.6741 22.4979 29.9286 22.0544 29.8283 21.0819C29.5009 17.9065 26.9518 15.3999 23.8359 15.1894C23.0932 15.1393 22.9926 15.1547 22.7997 15.3486Z" fill="white"/>
</svg>
