<svg width="25" height="15" viewBox="0 0 25 15" fill="none" xmlns="http://www.w3.org/2000/svg">
<path opacity="0.7" fill-rule="evenodd" clip-rule="evenodd" d="M10.0958 0.934494C9.06981 1.07786 8.72634 1.21738 8.38719 1.62868C8.27436 1.76553 8.3035 1.79379 8.64927 1.88285C9.55582 2.11639 9.80698 2.6972 9.8203 4.59098C9.8296 5.91606 9.68073 6.9256 9.43274 7.21848C9.05888 7.66033 8.36102 7.31269 7.65424 6.33268C7.44172 6.03806 6.79197 4.88588 6.21029 3.77223C5.27316 1.97825 5.1147 1.72912 4.82031 1.5863C4.52247 1.44174 4.28416 1.43119 2.52282 1.48412C1.44199 1.5165 0.482142 1.58025 0.389924 1.62556C0.286395 1.67647 0.222168 1.81378 0.222168 1.98421C0.222168 2.34891 1.2148 4.42028 2.21195 6.13611C4.17766 9.51898 5.98531 11.6996 7.74722 12.8134C9.47837 13.908 10.4262 14.1764 12.5599 14.1764C13.9692 14.1764 14.0446 14.167 14.2543 13.9663C14.4336 13.7948 14.485 13.619 14.5342 13.008C14.6534 11.5281 15.2132 10.8764 16.02 11.2784C16.1623 11.3494 16.7794 11.9174 17.3913 12.5407C18.1246 13.2879 18.6799 13.7675 19.0209 13.9482L19.5381 14.2222L21.8387 14.1995C23.905 14.179 24.1638 14.1594 24.379 14.007C24.6999 13.7796 24.7403 13.2983 24.4796 12.8092C24.184 12.2548 22.9677 10.9093 21.9903 10.0555C20.3089 8.58667 20.3121 8.52568 22.1949 6.1396C24.0405 3.80076 24.6666 2.78498 24.6666 2.12978C24.6666 1.51044 24.622 1.50081 21.8143 1.51347C20.4695 1.51962 19.2943 1.56291 19.2028 1.60969C19.1114 1.65656 18.8758 2.0575 18.6792 2.50081C17.6288 4.869 15.833 7.38864 15.1953 7.38864C15.0978 7.38864 14.9136 7.28196 14.7857 7.15152L14.5533 6.91441L14.5464 4.3768C14.5418 2.70793 14.5022 1.75444 14.4308 1.59171C14.2831 1.25517 13.9873 1.0918 13.3135 0.974853C12.7885 0.883677 10.6514 0.856893 10.0958 0.934494Z" fill="white"/>
</svg>
