<svg width="21" height="18" viewBox="0 0 21 18" fill="none" xmlns="http://www.w3.org/2000/svg">
<path opacity="0.7" fill-rule="evenodd" clip-rule="evenodd" d="M19.4973 0.732887C18.9325 0.86141 0.958756 7.67568 0.711364 7.8551C0.355327 8.11327 0.355327 8.47731 0.711364 8.81815C0.928655 9.02619 1.30421 9.17029 3.26289 9.79695L5.55966 10.5319L5.84969 10.3504C8.43367 8.73398 17.0915 3.51235 17.2505 3.47456C17.5357 3.40672 17.6237 3.6073 17.4187 3.85764C17.3374 3.95703 15.2516 5.78262 12.7837 7.91458L8.29665 11.7909L9.76579 12.8723C10.5738 13.467 12.2302 14.6865 13.4467 15.5821C15.7614 17.2863 16.0228 17.4317 16.5234 17.2938C16.7966 17.2185 17.1125 16.9772 17.2436 16.7436C17.344 16.5645 20.4458 1.52563 20.4443 1.22514C20.4428 0.928194 20.3769 0.832649 20.1057 0.73364C19.8615 0.644495 19.8857 0.644495 19.4973 0.732887Z" fill="white"/>
</svg>
