<svg width="25" height="25" viewBox="0 0 25 25" fill="none" xmlns="http://www.w3.org/2000/svg">
<path fill-rule="evenodd" clip-rule="evenodd" d="M5.13292 0.489921C4.15169 1.00198 1.38199 4.21855 0.616707 5.73466L0.285645 6.39061L0.506353 7.51542C1.90306 14.634 10.2196 23.0662 17.3266 24.5696C18.3844 24.7934 18.7047 24.7691 19.3659 24.4147C20.9926 23.5427 24.053 20.81 24.5335 19.8003C24.7449 19.3559 24.7558 19.2654 24.6437 18.8832C24.4728 18.2998 23.8326 17.7242 22.1932 16.6798C20.5217 15.6149 18.97 14.793 18.3246 14.6308C17.4382 14.4079 16.9883 14.6875 15.7137 16.2531L15.3527 16.6966L14.5926 16.3783C12.82 15.6364 10.922 14.1058 9.86173 12.5635C9.26923 11.7015 8.40494 9.97597 8.448 9.74088C8.46391 9.65375 8.85345 9.24971 9.31351 8.84311C9.77357 8.43652 10.2235 7.96094 10.3133 7.78648C10.6635 7.10546 10.4106 6.2294 9.3206 4.34848C8.53009 2.9842 7.20573 0.998824 6.89322 0.709318C6.37803 0.232208 5.77164 0.156596 5.13292 0.489921ZM12.8002 1.27192C12.4953 1.57845 12.4359 1.92655 12.6254 2.29503C12.8075 2.64904 12.8481 2.66208 14.2436 2.81474C18.2044 3.24792 21.2983 6.10518 22.0625 10.0356C22.1425 10.4469 22.2079 11.0109 22.2079 11.289C22.2079 11.8371 22.4077 12.3338 22.6685 12.4345C23.2046 12.6413 23.7551 12.3719 23.8886 11.8372C23.9793 11.4736 23.7619 9.73782 23.5117 8.82925C22.3311 4.54046 18.4064 1.34275 14.039 1.11112C13.092 1.06088 12.9979 1.07311 12.8002 1.27192ZM6.42251 2.84245C7.26968 4.1141 7.76652 4.95888 8.32144 6.07064L8.82477 7.07948L8.12829 7.65248C7.22813 8.39311 6.60228 9.07922 6.60228 9.32572C6.60228 9.72549 7.04421 10.9494 7.54055 11.9246C9.01335 14.8179 11.5354 17.0747 14.4872 18.1406C15.6313 18.5538 15.8488 18.5198 16.528 17.8222C16.8417 17.5 17.2864 17.007 17.5161 16.7267L17.9338 16.2172L18.6268 16.5588C19.8109 17.1424 21.3313 18.0698 22.8553 19.1383C22.9127 19.1784 22.884 19.3102 22.7847 19.4625C22.5154 19.876 20.5439 21.6177 19.4836 22.3789L18.5056 23.081L17.787 22.9433C11.4007 21.7197 3.30189 13.5516 2.12924 7.15183L2.01301 6.51748L2.42787 5.90311C3.08878 4.92454 4.02036 3.78353 4.91363 2.85855C5.36873 2.38735 5.76839 2.00175 5.80173 2.00175C5.83507 2.00175 6.11445 2.38012 6.42251 2.84245ZM12.7997 5.34845C12.4953 5.65457 12.436 6.00277 12.6254 6.37115C12.7972 6.70549 12.8188 6.71354 13.9998 6.88953C15.0453 7.04524 15.9051 7.47221 16.6801 8.22059C17.5867 9.09614 18.145 10.3047 18.1521 11.4074C18.1565 12.1051 18.4675 12.4978 19.0159 12.4978C19.6741 12.4978 19.9286 12.0543 19.8283 11.0818C19.5009 7.90642 16.9518 5.39981 13.8359 5.18928C13.0932 5.13914 12.9926 5.15453 12.7997 5.34845Z" fill="#4188FF"/>
</svg>
