<svg width="22" height="22" viewBox="0 0 22 22" fill="none" xmlns="http://www.w3.org/2000/svg">
<path opacity="0.7" fill-rule="evenodd" clip-rule="evenodd" d="M4.41477 0.517051C2.47604 0.79991 0.980636 2.21971 0.586562 4.15181C0.493273 4.60912 0.477455 5.13068 0.477068 7.76228L0.476616 10.8382L0.734856 10.8355C3.44431 10.8063 5.74148 10.564 6.83022 10.1926C9.09808 9.41884 10.2519 7.78864 10.6096 4.85274C10.7087 4.03874 10.833 1.86763 10.8368 0.881828L10.8385 0.444717L7.82031 0.452618C6.16028 0.456956 4.62782 0.485968 4.41477 0.517051ZM11.1437 0.816942C11.2016 2.2892 11.2971 4.19552 11.3195 4.33015C11.3344 4.41919 11.3776 4.75431 11.4155 5.07486C11.6095 6.71671 12.0939 7.8927 12.9514 8.80455C14.035 9.95671 15.3477 10.4588 17.8432 10.6756C19.0343 10.7791 21.4484 10.8646 21.5126 10.8055C21.5423 10.7782 21.5532 9.36107 21.5368 7.65634C21.5046 4.29408 21.4829 4.05849 21.1292 3.22928C20.8736 2.62982 20.5371 2.15282 20.043 1.68916C19.5302 1.20801 19.1086 0.955134 18.4566 0.737808C17.6755 0.477484 17.2262 0.447372 14.0988 0.445883L11.129 0.444458L11.1437 0.816942ZM0.444723 13.9952C0.44511 17.0987 0.491594 17.7129 0.78773 18.5313C1.28265 19.899 2.31632 20.8752 3.70461 21.2861C4.47385 21.5138 5.14682 21.5556 8.04459 21.5556H10.8385L10.8379 20.9566C10.8373 20.3091 10.7267 18.0288 10.6823 17.7462C10.6673 17.6509 10.6365 17.3836 10.614 17.1521C10.3575 14.5228 9.30364 12.8321 7.38582 11.9729C6.89407 11.7526 6.14292 11.5508 5.32927 11.4204C4.62104 11.3069 2.04465 11.1313 1.0738 11.1303L0.444336 11.1297L0.444723 13.9952ZM18.6714 11.2298C15.6993 11.4206 14.2983 11.8518 13.1485 12.9297C11.802 14.1921 11.3149 15.9314 11.1863 19.9364C11.1617 20.7021 11.1388 21.3723 11.1353 21.4259C11.1298 21.5108 11.4795 21.5256 13.8728 21.5422C15.6089 21.5542 16.8526 21.5345 17.2592 21.4884C18.5107 21.3466 19.3903 20.9453 20.1674 20.1616C20.9354 19.3871 21.3378 18.5168 21.4842 17.314C21.5256 16.9735 21.5552 15.5666 21.5553 13.9304L21.5554 11.1297L20.7646 11.1379C20.3296 11.1424 19.3877 11.1838 18.6714 11.2298Z" fill="white"/>
</svg>
