<svg width="24" height="17" viewBox="0 0 24 17" fill="none" xmlns="http://www.w3.org/2000/svg">
<path opacity="0.7" fill-rule="evenodd" clip-rule="evenodd" d="M6.46696 0.745165C3.58286 0.874572 2.54325 1.0566 1.86829 1.55033C0.74069 2.37493 0.452389 3.50116 0.350081 7.47997C0.260342 10.9722 0.538733 13.6236 1.08937 14.5201C1.37987 14.9931 1.88472 15.421 2.41791 15.646C3.48569 16.0968 6.98777 16.2745 13.5124 16.2091C20.6202 16.1379 21.6019 16.0058 22.5845 14.9886C23.4355 14.1077 23.6636 12.7375 23.6668 8.48686C23.6704 3.73336 23.3831 2.40925 22.1648 1.56548C21.4165 1.04723 20.4496 0.886392 17.2025 0.740349C14.9715 0.639922 8.7496 0.642812 6.46696 0.745165ZM12.7863 6.77716C14.4077 7.66672 15.7344 8.42041 15.7344 8.45184C15.7344 8.51076 9.84426 11.7702 9.73782 11.7702C9.70516 11.7702 9.67846 10.2698 9.67846 8.43582C9.67846 6.58121 9.71387 5.11429 9.75828 5.13058C9.80214 5.1466 11.1647 5.88759 12.7863 6.77716Z" fill="white"/>
</svg>
