<svg width="27" height="17" viewBox="0 0 27 17" fill="none" xmlns="http://www.w3.org/2000/svg">
<path fill-rule="evenodd" clip-rule="evenodd" d="M6.85412 0.125575C5.27494 0.466313 3.75179 1.28973 2.57334 2.43951C1.43637 3.54898 0.643765 4.87626 0.240499 6.3459C-0.0810789 7.51843 -0.0800236 9.42164 0.242821 10.6046C0.661074 12.1368 1.41695 13.414 2.57334 14.5423C4.36519 16.2907 6.55872 17.1105 9.1171 16.9881C10.5861 16.9178 11.299 16.7414 12.5558 16.1373L13.5082 15.6794L14.4272 16.1312C15.7844 16.7984 16.5881 16.9687 18.3579 16.9643C20.1017 16.96 20.7497 16.8183 22.1573 16.1334C23.8938 15.2885 25.1622 14.0638 26.0556 12.3695C26.7432 11.0654 27 10.0107 27 8.49092C27 6.97114 26.7432 5.91647 26.0556 4.61234C25.1622 2.91805 23.8938 1.69332 22.1573 0.848402C20.7497 0.163515 20.1017 0.0218853 18.3579 0.0175434C16.5881 0.0130981 15.7844 0.183467 14.4272 0.850677L13.5082 1.30244L12.5558 0.844578C12.032 0.592746 11.3184 0.31083 10.9702 0.217996C10.0542 -0.0261861 7.79268 -0.076945 6.85412 0.125575ZM10.4467 1.75979C11.0175 1.90835 12.0783 2.33489 12.0783 2.41573C12.0783 2.44354 11.8971 2.68204 11.6757 2.94576C10.7671 4.02804 10.1942 5.10328 9.84775 6.37723C9.51445 7.60248 9.51466 9.37998 9.84806 10.6061C10.1412 11.6837 10.8426 13.0337 11.559 13.8994C11.8562 14.2585 12.0804 14.5711 12.0572 14.5938C11.9377 14.7108 10.7911 15.147 10.2842 15.2683C9.54632 15.4447 7.87237 15.4473 7.11797 15.273C6.79871 15.1993 6.09054 14.9294 5.54427 14.6733C3.90092 13.9029 2.62136 12.4785 1.97187 10.6965C1.72375 10.0158 1.69547 9.79029 1.69547 8.49092C1.69547 7.19154 1.72375 6.96607 1.97187 6.28532C2.37261 5.18578 2.84479 4.46388 3.74071 3.58092C4.81753 2.51963 6.15492 1.84632 7.64282 1.6162C8.35837 1.50548 9.74231 1.5764 10.4467 1.75979ZM19.991 1.73509C20.2537 1.79567 20.9157 2.05432 21.4619 2.30977C23.1044 3.07778 24.3844 4.50224 25.0343 6.28532C25.2825 6.96607 25.3107 7.19154 25.3107 8.49092C25.3107 9.79029 25.2825 10.0158 25.0343 10.6965C24.6334 11.7965 24.1623 12.5166 23.2561 13.4142C22.5977 14.0665 22.2785 14.2905 21.4619 14.6733C20.9157 14.9294 20.2075 15.1993 19.8882 15.273C19.1338 15.4473 17.4599 15.4447 16.722 15.2683C16.2151 15.147 15.0685 14.7108 14.949 14.5938C14.9258 14.5711 15.15 14.2585 15.4472 13.8994C16.1636 13.0337 16.865 11.6837 17.1581 10.6061C17.4917 9.37936 17.4917 7.60248 17.1581 6.37578C16.865 5.29815 16.1636 3.94812 15.4472 3.08243C15.15 2.72329 14.9258 2.41077 14.949 2.38803C14.9722 2.36539 15.25 2.23472 15.5664 2.09784C16.0721 1.87899 16.6679 1.72247 17.5664 1.57237C17.9526 1.50786 19.4383 1.60752 19.991 1.73509ZM14.5057 4.53046C14.5057 4.57657 14.0545 4.6142 13.5031 4.6142C12.9517 4.6142 12.5005 4.57853 12.5005 4.53491C12.5005 4.49128 12.7243 4.20492 12.9979 3.89861L13.4952 3.3417L14.0005 3.89426C14.2784 4.1982 14.5057 4.48446 14.5057 4.53046ZM15.5336 6.65594C15.5985 6.92607 15.6796 7.27497 15.7139 7.43128L15.7762 7.71557H13.5031H11.23L11.2923 7.43128C11.3266 7.27497 11.4077 6.92607 11.4726 6.65594L11.5905 6.16489H13.5031H15.4157L15.5336 6.65594ZM15.7139 9.55056C15.6796 9.70686 15.5985 10.0558 15.5336 10.3259L15.4157 10.817H13.5031H11.5905L11.4726 10.3259C11.4077 10.0558 11.3266 9.70686 11.2923 9.55056L11.23 9.26626H13.5031H15.7762L15.7139 9.55056ZM14.5057 12.4514C14.5057 12.4974 14.2784 12.7836 14.0005 13.0876L13.4952 13.6401L12.9979 13.0832C12.7243 12.7769 12.5005 12.4906 12.5005 12.4469C12.5005 12.4033 12.9517 12.3676 13.5031 12.3676C14.0545 12.3676 14.5057 12.4053 14.5057 12.4514Z" fill="#4188FF"/>
</svg>
