<svg width="19" height="15" viewBox="0 0 19 15" fill="none" xmlns="http://www.w3.org/2000/svg">
<path fill-rule="evenodd" clip-rule="evenodd" d="M1.2635 0.0755569C0.926804 0.170262 0.383721 0.639963 0.175434 1.01672C2.64247e-07 1.33391 0 1.33391 0 5.85099C0 10.3681 2.64247e-07 10.3681 0.175434 10.6853C0.397259 11.0864 0.897988 11.504 1.29501 11.619C1.50733 11.6806 2.65897 11.7079 5.0373 11.7079H8.47281L8.62165 12.2106C9.10203 13.8326 10.7111 15 12.4665 15C13.5935 15 14.4387 14.6729 15.2859 13.9092C15.8102 13.4364 16.2653 12.7059 16.4304 12.0716L16.525 11.7079H16.9617C17.2018 11.7079 17.5363 11.6679 17.705 11.619C18.102 11.504 18.6027 11.0864 18.8246 10.6853C19 10.3681 19 10.3681 19 5.85099C19 1.34899 18.9994 1.33284 18.8265 1.02039C18.6246 0.655428 18.1726 0.249503 17.801 0.0993673C17.5854 0.0122412 16.1584 -0.00467872 9.52232 0.000986771C5.11235 0.00481481 1.39587 0.0383483 1.2635 0.0755569ZM17.5425 1.43811C17.6628 1.58189 17.6938 1.74221 17.6938 2.22286V2.82684H9.5H1.30625V2.24758C1.30625 1.61489 1.3836 1.39945 1.64785 1.29555C1.74547 1.2572 5.21368 1.23407 9.606 1.2425L17.3911 1.25735L17.5425 1.43811ZM17.6938 7.10575C17.6938 10.5593 17.7272 10.404 16.9702 10.4647L16.537 10.4994L16.3972 10.0127C16.1996 9.32463 15.8685 8.807 15.2949 8.28938C13.2575 6.45062 10.0466 6.9834 8.87498 9.35456C8.7244 9.65935 8.5766 10.0389 8.54652 10.1981L8.49189 10.4876L5.05036 10.4661L1.60882 10.4446L1.45754 10.2639C1.3144 10.0929 1.30625 9.9228 1.30625 7.10575V4.12838H9.5H17.6938V7.10575ZM2.70323 8.2207C2.43517 8.46102 2.42796 8.79261 2.68462 9.0814C2.87478 9.29538 2.87969 9.2963 3.99926 9.32126C5.25334 9.34928 5.51902 9.2901 5.70538 8.9416C5.85232 8.6669 5.78376 8.38393 5.52211 8.18487C5.3428 8.04852 5.19935 8.03297 4.11754 8.03297C2.94833 8.03297 2.90653 8.03856 2.70323 8.2207ZM13.5375 8.61698C14.1018 8.80417 14.8456 9.53456 15.048 10.1001C15.2826 10.7559 15.2527 11.624 14.9754 12.2055C14.5773 13.0404 13.9173 13.5277 12.9571 13.6961C11.7476 13.9082 10.5432 13.3123 10.022 12.2438C9.84596 11.8828 9.81667 11.719 9.81667 11.0954C9.81667 10.4687 9.84564 10.3083 10.0263 9.93566C10.2518 9.47055 10.7296 8.95698 11.1171 8.76321C11.8303 8.40651 12.7379 8.3517 13.5375 8.61698ZM10.4464 10.6709C10.3239 10.7893 10.2521 10.9463 10.2521 11.0954C10.2521 11.2445 10.3239 11.4015 10.4464 11.5199L10.6407 11.7079H12.4898C14.2379 11.7079 14.3483 11.6994 14.5112 11.5526C14.6059 11.4673 14.7047 11.316 14.7305 11.2164C14.7851 11.0061 14.5922 10.6001 14.4048 10.5305C14.3343 10.5044 13.4586 10.4829 12.4587 10.4829H10.6407L10.4464 10.6709Z" fill="#4188FF"/>
</svg>
