<svg width="19" height="18" viewBox="0 0 19 18" fill="none" xmlns="http://www.w3.org/2000/svg">
<path fill-rule="evenodd" clip-rule="evenodd" d="M5.04925 2.22167C2.80823 3.44149 0.906677 4.50004 0.823587 4.57407C0.353891 4.99247 0.207605 6.31685 0.555223 7.00284C0.819353 7.52394 1.07485 7.6782 1.73621 7.7159L2.29292 7.74764V10.9516V14.1555L1.73621 14.1872C1.07485 14.2249 0.819353 14.3792 0.555223 14.9003C0.402307 15.2021 0.375462 15.3823 0.375462 16.107C0.375462 16.8317 0.402307 17.0119 0.555223 17.3137C0.654132 17.5087 0.83645 17.743 0.960525 17.8341C1.18479 17.999 1.23488 18 9.36353 18C17.4922 18 17.5423 17.999 17.7665 17.8341C17.8906 17.743 18.0729 17.5087 18.1718 17.3137C18.3247 17.0119 18.3516 16.8317 18.3516 16.107C18.3516 15.3823 18.3247 15.2021 18.1718 14.9003C17.9077 14.3792 17.6522 14.2249 16.9908 14.1872L16.4341 14.1555V10.9516V7.74764L16.9908 7.7159C17.6522 7.6782 17.9077 7.52394 18.1718 7.00284C18.5194 6.31685 18.3732 4.99247 17.9035 4.57407C17.8204 4.50004 15.9116 3.43972 13.6619 2.21788C11.0001 0.772191 9.49327 -0.00241097 9.34763 5.6373e-06C9.21165 0.00234169 7.52477 0.874172 5.04925 2.22167ZM13.2037 3.48104L16.9534 5.51582L16.9774 5.9782L17.0014 6.44058H9.36353H1.72567L1.74964 5.97812L1.77361 5.51566L5.48867 3.48926C7.53196 2.37472 9.26006 1.45915 9.32885 1.45456C9.39772 1.44997 11.1414 2.36191 13.2037 3.48104ZM5.48867 10.9516V14.1737H4.56989H3.65111V10.9516V7.72943H4.56989H5.48867V10.9516ZM8.68443 10.9516V14.1737H7.76565H6.84687V10.9516V7.72943H7.76565H8.68443V10.9516ZM11.8802 10.9516V14.1737H10.9614H10.0426V10.9516V7.72943H10.9614H11.8802V10.9516ZM15.0759 10.9516V14.1737H14.1572H13.2384V10.9516V7.72943H14.1572H15.0759V10.9516ZM16.9934 16.107V16.7514H9.36353H1.73366V16.107V15.4626H9.36353H16.9934V16.107Z" fill="#4188FF"/>
</svg>
