<svg width="30" height="24" viewBox="0 0 30 24" fill="none" xmlns="http://www.w3.org/2000/svg">
<path fill-rule="evenodd" clip-rule="evenodd" d="M6.65699 0.0665759C4.72428 0.464596 3.18482 1.36626 1.93759 2.83074C-0.130476 5.25889 -0.579813 8.61699 0.767143 11.5772C2.24063 14.8156 6.29797 18.7604 11.6692 22.1769C13.7223 23.4828 14.6706 24 15.0118 24C15.3327 24 16.8813 23.1329 18.7582 21.9023C23.0755 19.0716 26.9273 15.5085 28.5227 12.8695C29.5603 11.1533 30 9.69749 30 7.97835C30 4.41902 27.7014 1.37616 24.1789 0.272276C23.4732 0.051238 23.1375 0.0152319 21.827 0.0207796C20.4183 0.0267624 20.224 0.0533049 19.3534 0.358211C17.7723 0.912002 16.5531 1.74035 15.6087 2.90232C15.3159 3.2627 15.0448 3.55749 15.0064 3.55749C14.9679 3.55749 14.6969 3.2627 14.404 2.90232C13.4537 1.73306 12.2253 0.901123 10.6594 0.366586C9.87068 0.0972509 9.50072 0.037858 8.42095 0.00685612C7.70948 -0.0135942 6.9157 0.0132744 6.65699 0.0665759Z" fill="#F14747"/>
</svg>
