<svg width="17" height="16" viewBox="0 0 17 16" fill="none" xmlns="http://www.w3.org/2000/svg">
<path fill-rule="evenodd" clip-rule="evenodd" d="M7.29087 0.109848C7.02899 0.16981 6.51901 0.364168 6.15749 0.541823C3.76924 1.71559 2.81153 4.53774 4.02435 6.82793C4.17802 7.11804 4.45497 7.51777 4.63985 7.7162C4.82481 7.91464 4.96235 8.0886 4.94564 8.10276C4.92894 8.11685 4.75026 8.20652 4.54859 8.30197C2.58836 9.22981 0.953634 11.1515 0.304323 13.2915C0.118713 13.903 -0.0543499 15.2214 0.0160485 15.4866C0.122705 15.8878 0.579724 16.1034 1.00057 15.9508C1.20915 15.8752 1.37089 15.5004 1.37089 15.0929C1.37089 13.5676 2.18683 11.8342 3.48537 10.601C3.96805 10.1426 4.95526 9.45588 5.13158 9.45588C5.16947 9.45588 5.20043 9.90725 5.20043 10.4589C5.20043 11.3464 5.18397 11.467 5.05784 11.5053C4.33846 11.7237 3.95167 12.0236 3.68092 12.5728C3.41375 13.1149 3.42548 13.6332 3.71693 14.1603C4.3607 15.3245 5.93057 15.5424 6.88698 14.6004C7.24223 14.2506 7.4007 13.8558 7.39858 13.3263C7.39647 12.8051 7.20988 12.3667 6.84232 12.0195L6.58558 11.7769V10.4359V9.09487L7.05409 9.25198C7.72369 9.47651 9.27701 9.47651 9.94661 9.25198L10.4151 9.09487V10.3375V11.5802L10.1447 11.6726C9.73656 11.812 9.25664 12.2385 8.98923 12.6996C8.77812 13.0635 8.74609 13.2051 8.71774 13.9012C8.6915 14.5443 8.71073 14.7267 8.8213 14.8861C9.01881 15.1709 9.3039 15.2514 9.64204 15.118C9.95655 14.9939 9.98409 14.9199 10.0309 14.0743C10.0814 13.1643 10.4093 12.7657 11.1077 12.7657C11.8061 12.7657 12.134 13.1643 12.1845 14.0743C12.2313 14.9199 12.2588 14.9939 12.5734 15.118C12.9115 15.2514 13.1966 15.1709 13.3941 14.8861C13.5047 14.7267 13.5239 14.5443 13.4977 13.9012C13.4693 13.2051 13.4373 13.0635 13.2262 12.6996C12.9588 12.2385 12.4788 11.812 12.0707 11.6726L11.8003 11.5802V10.518C11.8003 9.93388 11.8312 9.45588 11.8691 9.45588C12.0454 9.45588 13.0327 10.1426 13.5153 10.601C14.8143 11.8347 15.6298 13.5676 15.6298 15.0941C15.6298 15.6909 15.8677 15.9918 16.3428 15.9962C16.6462 15.999 16.9023 15.7966 16.9838 15.4896C17.0501 15.24 16.9029 14.0657 16.7196 13.3815C16.5253 12.6562 16.0447 11.6429 15.5844 10.988C14.8239 9.90586 13.5712 8.8317 12.4521 8.30197C12.2504 8.20652 12.0718 8.11685 12.0551 8.10276C12.0384 8.0886 12.1759 7.91464 12.3609 7.7162C12.5457 7.51777 12.8227 7.11804 12.9764 6.82793C14.4123 4.11647 12.7786 0.798067 9.66649 0.104999C9.0294 -0.0369401 7.92266 -0.0346309 7.29087 0.109848ZM9.70592 1.44526C11.7252 2.10153 12.7246 4.35339 11.8094 6.18451C10.502 8.80053 6.49872 8.80053 5.1913 6.18451C4.01588 3.83274 5.97709 1.08803 8.70918 1.26122C9.00333 1.27984 9.45187 1.36267 9.70592 1.44526ZM5.9278 12.9686C6.02068 13.0801 6.0967 13.2548 6.0967 13.3569C6.0967 13.6126 5.75115 13.9203 5.46393 13.9203C4.91655 13.9203 4.63863 13.2332 5.0514 12.9004C5.30815 12.6935 5.72581 12.7259 5.9278 12.9686Z" fill="#FF931E"/>
</svg>
