<svg width="14" height="7" viewBox="0 0 14 7" fill="none" xmlns="http://www.w3.org/2000/svg">
<path fill-rule="evenodd" clip-rule="evenodd" d="M8.78851 0.0611911C8.72853 0.095293 7.50465 1.28306 6.06885 2.70061L3.45818 5.27808L2.25224 4.03793C1.31151 3.07059 1.00732 2.78967 0.869215 2.76094C0.340288 2.65091 -0.157561 3.22216 0.0470091 3.70452C0.132828 3.90694 2.93983 6.85607 3.12903 6.94261C3.29996 7.02083 3.61259 7.01875 3.76236 6.93845C3.94175 6.84228 9.63056 1.19537 9.71981 1.02491C9.88949 0.700753 9.77297 0.266295 9.46786 0.0853855C9.29459 -0.017413 8.94837 -0.0297291 8.78851 0.0611911ZM13.0192 0.0553887C12.9471 0.0843452 11.7134 1.26877 10.2778 2.68737L7.66751 5.26674L7.54577 5.15185C7.35892 4.97565 7.02916 4.85604 6.84324 4.89704C6.46359 4.98079 6.18531 5.40961 6.27576 5.77154C6.31889 5.94386 7.02752 6.75836 7.25625 6.89833C7.4473 7.0153 7.80344 7.03189 7.9772 6.93199C8.04078 6.89543 9.40712 5.55998 11.0135 3.96436C14.2334 0.766165 14.1244 0.898522 13.9056 0.450544C13.7268 0.0841811 13.3575 -0.0804169 13.0192 0.0553887Z" fill="#4188FF"/>
</svg>
