<svg width="21" height="15" viewBox="0 0 21 15" fill="none" xmlns="http://www.w3.org/2000/svg">
<path fill-rule="evenodd" clip-rule="evenodd" d="M2.75211 0.117452C2.24213 0.253447 1.80458 0.611994 1.5498 1.10273L1.34512 1.49701L1.32223 6.30125L1.29926 11.1055H0.852227C0.0919634 11.1055 -0.0402105 11.3511 0.00916045 12.6721C0.035072 13.3681 0.0746342 13.5726 0.247596 13.9059C0.507611 14.4068 1.00868 14.7921 1.54996 14.9072C2.13203 15.0309 18.868 15.0309 19.45 14.9072C19.9913 14.7921 20.4924 14.4068 20.7524 13.9059C20.9254 13.5726 20.9649 13.3681 20.9908 12.6721C21.0402 11.3511 20.908 11.1055 20.1478 11.1055H19.7007L19.6778 6.30125L19.6549 1.49701L19.446 1.09478C19.1846 0.591246 18.6844 0.206035 18.1422 0.0907065C17.4999 -0.0458557 3.27198 -0.0211366 2.75211 0.117452ZM18.1872 1.49791L18.3879 1.69679V6.40118V11.1055H16.8815H15.3751L15.2811 10.6562C15.0404 9.50694 14.0188 8.1264 12.9805 7.54733L12.5182 7.2896L12.7939 6.88356C13.1322 6.38505 13.2372 6.02796 13.2378 5.37457C13.2385 4.60609 12.987 4.03415 12.3872 3.44025C11.7868 2.84594 11.3607 2.67672 10.465 2.6768C9.95439 2.6768 9.75993 2.71724 9.35384 2.90778C8.39454 3.35775 7.76122 4.33921 7.7622 5.37457C7.76277 6.02796 7.86781 6.38505 8.20613 6.88356L8.48176 7.2896L8.01952 7.54733C6.98117 8.1264 5.95959 9.50694 5.71895 10.6562L5.62486 11.1055H4.11848H2.61209V6.40118V1.69679L2.81276 1.49791L3.01335 1.29894H10.5H17.9866L18.1872 1.49791ZM10.9716 3.97815C11.4166 4.10069 11.8089 4.52481 11.9264 5.01019C12.2424 6.31632 10.8064 7.35371 9.70304 6.61635C8.89103 6.07383 8.77921 5.01773 9.46207 4.34067C9.88082 3.92547 10.3612 3.81006 10.9716 3.97815ZM11.1224 8.18775C11.832 8.31816 12.6752 8.77517 13.1432 9.28292C13.5589 9.73386 13.9088 10.3617 14.012 10.8421L14.0687 11.1055L13.1834 11.1061C12.4376 11.1065 12.2597 11.1319 12.0531 11.2676C11.834 11.4114 11.6681 11.4286 10.5 11.4286C9.33185 11.4286 9.166 11.4114 8.94694 11.2676C8.74014 11.1318 8.56244 11.1065 7.8128 11.1061L6.92387 11.1055L6.97316 10.861C7.1516 9.97652 7.95363 8.99092 8.85228 8.55181C9.70279 8.13629 10.3114 8.03863 11.1224 8.18775ZM8.63044 12.5438C9.09767 12.7528 11.9023 12.7528 12.3696 12.5438C12.655 12.4162 13.0304 12.4022 16.1909 12.4022H19.6958V12.8516C19.6958 13.2208 19.6599 13.3367 19.4951 13.5L19.2945 13.699H10.5H1.70551L1.50492 13.5C1.34013 13.3367 1.30425 13.2208 1.30425 12.8516V12.4022H4.8091C7.96958 12.4022 8.34501 12.4162 8.63044 12.5438Z" fill="#4188FF"/>
</svg>
