<svg width="34" height="30" viewBox="0 0 34 30" fill="none" xmlns="http://www.w3.org/2000/svg">
<path fill-rule="evenodd" clip-rule="evenodd" d="M7.68324 0.0664728C4.88833 0.510307 2.38723 2.35688 1.07209 4.94772C0.881274 5.32351 0.567804 6.15666 0.375258 6.79933C-0.097669 8.37835 -0.127301 10.861 0.307489 12.4775C1.11143 15.467 3.21176 18.2941 7.48671 22.1408C10.6291 24.9684 16.3894 29.8457 16.7186 29.9575C16.8859 30.0143 17.1488 30.0141 17.303 29.9572C17.6186 29.8408 23.5565 24.8013 26.5133 22.1408C30.7882 18.2941 32.8886 15.467 33.6925 12.4775C34.1273 10.861 34.0977 8.37835 33.6247 6.79933C33.0302 4.81454 32.2308 3.50785 30.8278 2.22794C29.8836 1.36641 28.7242 0.717103 27.4312 0.325531C26.139 -0.0659077 24.0341 -0.0966812 22.8468 0.258413C20.8964 0.841658 19.0271 2.24081 17.7215 4.09454C17.3719 4.59077 17.0473 4.9968 17 4.9968C16.9527 4.9968 16.6281 4.59077 16.2785 4.09454C14.989 2.26363 13.0907 0.833168 11.2239 0.285339C10.3421 0.0266792 8.60863 -0.0804992 7.68324 0.0664728Z" fill="#DB7D17"/>
</svg>
