<svg width="28" height="34" viewBox="0 0 28 34" fill="none" xmlns="http://www.w3.org/2000/svg">
<path fill-rule="evenodd" clip-rule="evenodd" d="M7.533 0.174246C5.37771 0.796977 3.83799 2.73043 3.83771 4.81424C3.83756 5.82677 4.04977 6.49774 4.61375 7.26757L4.97817 7.76496L4.01693 7.86426C2.78678 7.99138 1.73401 8.52103 1.0107 9.37669C0.23466 10.2945 0 11.1043 0 12.8642V14.3177H14H28V12.8642C28 11.1043 27.7653 10.2945 26.9893 9.37669C26.2647 8.51955 25.2135 7.99138 23.9777 7.86367L23.0112 7.76392L23.3574 7.37812C24.0008 6.66112 24.2258 6.02581 24.228 4.9205C24.2322 2.55655 22.6038 0.588611 20.2478 0.11076C19.2509 -0.0915388 18.1099 0.070507 17.2264 0.539775C16.0656 1.15629 14.8055 2.89514 14.3465 4.51353C14.2484 4.85952 14.1303 5.14085 14.0841 5.13878C14.0378 5.1367 13.7918 4.68712 13.5371 4.13986C12.0113 0.859427 9.92678 -0.517446 7.533 0.174246ZM9.61523 2.76402C10.0675 3.05112 10.6926 3.89553 11.1572 4.8465C11.2964 5.13138 11.4538 5.39775 11.507 5.43845C11.6224 5.52665 12.3655 7.44945 12.3655 7.65989C12.3655 8.02201 9.5082 7.59714 8.27734 7.05196C5.98162 6.03499 5.47905 4.60928 6.91629 3.19008C7.6784 2.43756 8.81773 2.25776 9.61523 2.76402ZM20.4386 2.68663C21.2854 3.14539 21.979 4.3759 21.8187 5.13537C21.6178 6.08752 19.8288 7.19225 17.8488 7.58663C16.7005 7.81542 15.7767 7.87225 15.7767 7.7142C15.7767 7.66359 16.0065 6.89598 16.2873 6.0085C16.8614 4.19491 17.4684 3.15856 18.1945 2.75307C18.7809 2.42573 19.8959 2.39258 20.4386 2.68663ZM0.00142108 23.6039L0.0028427 30.6703L0.335005 31.4132C0.779025 32.4059 1.94337 33.4863 2.88229 33.7765C3.46262 33.956 4.52349 34 8.26952 34H12.934V25.2687V16.5375H6.46701H0L0.00142108 23.6039ZM15.066 25.2687V34H19.7305C23.4765 34 24.5374 33.956 25.1177 33.7765C26.0566 33.4863 27.221 32.4059 27.665 31.4132L27.9972 30.6703L27.9986 23.6039L28 16.5375H21.533H15.066V25.2687Z" fill="#97BEFF"/>
</svg>
