<svg width="17" height="15" viewBox="0 0 17 15" fill="none" xmlns="http://www.w3.org/2000/svg">
<path fill-rule="evenodd" clip-rule="evenodd" d="M2.39762 0.0882018C1.55455 0.348146 0.758216 0.95854 0.413365 1.60906C0.0235697 2.34446 0 2.60848 0 6.2376C0 10.0098 0.0215379 10.2104 0.511383 10.9986C0.842986 11.5321 1.2826 11.9029 1.9506 12.212L2.47889 12.4565H8.49325H14.5076L15.0359 12.212C15.9998 11.7659 16.6033 11.0719 16.8612 10.1129C17.0467 9.42255 17.0461 3.04889 16.8604 2.3623C16.6043 1.41561 16.0364 0.741855 15.132 0.311614L14.5162 0.0186592L8.61947 0.00332704C4.01272 -0.00864148 2.6516 0.00989791 2.39762 0.0882018ZM14.493 1.41866C14.9029 1.61462 15.2696 1.97571 15.4528 2.36371C15.5896 2.65369 15.6013 2.95752 15.6013 6.2376C15.6013 9.51768 15.5896 9.8215 15.4528 10.1115C15.2696 10.4995 14.9029 10.8606 14.493 11.0565C14.1971 11.198 13.9167 11.2049 8.49325 11.2049H2.80399L2.44833 11.0223C2.00953 10.797 1.73043 10.5182 1.53496 10.1098C1.39663 9.82056 1.38509 9.52839 1.38347 6.25465C1.3816 2.47565 1.38387 2.45109 1.78903 1.95537C2.00823 1.68713 2.42501 1.4178 2.77116 1.32072C2.94436 1.27215 5.13074 1.24821 8.61517 1.25674C13.903 1.26957 14.1981 1.2777 14.493 1.41866ZM6.58247 3.12813C6.43472 3.22489 6.2373 3.40348 6.14375 3.52497C5.97966 3.73821 5.97372 3.832 5.97372 6.22985V8.71391L6.20146 9.00123C6.49689 9.37413 6.80801 9.52315 7.29038 9.52292C7.64344 9.52276 7.86971 9.41809 9.67174 8.42142C10.8876 7.74899 11.7653 7.21158 11.9257 7.04129C12.3812 6.55762 12.3798 5.87674 11.9223 5.41685C11.7796 5.27347 10.7669 4.66041 9.67174 4.0544C7.82436 3.03207 7.65051 2.95243 7.26584 2.95228C6.96934 2.9522 6.77453 3.00226 6.58247 3.12813ZM9.08185 5.22223C10.0098 5.73946 10.769 6.19629 10.769 6.2376C10.769 6.30174 7.46675 8.19324 7.35475 8.19324C7.33273 8.19324 7.31476 7.3132 7.31476 6.2376C7.31476 5.16199 7.33273 4.28196 7.35475 4.28196C7.3767 4.28196 8.15393 4.70508 9.08185 5.22223ZM1.61583 13.826C1.5435 13.8667 1.43849 14.0064 1.38249 14.1365C1.26326 14.4135 1.38436 14.7964 1.63127 14.9236C1.82902 15.0255 15.1575 15.0255 15.3552 14.9236C15.6027 14.7961 15.7232 14.4136 15.6035 14.1354C15.5473 14.0047 15.4355 13.8639 15.3552 13.8225C15.1597 13.7218 1.79512 13.7252 1.61583 13.826Z" fill="#4188FF"/>
</svg>
