<svg width="15" height="20" viewBox="0 0 15 20" fill="none" xmlns="http://www.w3.org/2000/svg">
<path fill-rule="evenodd" clip-rule="evenodd" d="M6.98411 0.0849044C6.55133 0.24886 6.32671 0.422629 6.07163 0.790964C5.84173 1.12285 5.83561 1.12581 5.28222 1.16841C4.51255 1.22768 3.94684 1.55139 3.66964 2.09123C3.56487 2.2953 3.56212 2.29577 2.43283 2.33043C1.47666 2.35972 1.25349 2.39033 0.994898 2.52772C0.639107 2.71676 0.344158 3.02052 0.142653 3.4056C0.00635192 3.66614 0 4.00924 0 11.1555V18.6328L0.169592 18.9555C0.396965 19.3882 0.89074 19.8047 1.3011 19.9099C1.77 20.03 13.23 20.03 13.6989 19.9099C14.1093 19.8047 14.603 19.3882 14.8304 18.9555L15 18.6328V11.1555C15 4.00924 14.9936 3.66614 14.8573 3.4056C14.6558 3.02052 14.3609 2.71676 14.0051 2.52772C13.7465 2.39033 13.5233 2.35972 12.5672 2.33043C11.4379 2.29577 11.4351 2.2953 11.3304 2.09123C11.0561 1.55723 10.5044 1.23789 9.72505 1.16226C9.1725 1.10867 9.16071 1.10291 8.90265 0.757394C8.43375 0.129768 7.61939 -0.155771 6.98411 0.0849044ZM7.8861 1.41594C7.98941 1.52109 8.07398 1.6979 8.07398 1.80889C8.07398 1.91988 8.15855 2.09669 8.26186 2.20184C8.43735 2.38051 8.50224 2.39305 9.25117 2.39305C10.0259 2.39305 10.058 2.39991 10.2113 2.59829C10.3167 2.73467 10.3699 2.91748 10.3699 3.14351V3.48349H7.5H4.6301V3.14351C4.6301 2.91748 4.68329 2.73467 4.78875 2.59829C4.94204 2.39991 4.97411 2.39305 5.74883 2.39305C6.49776 2.39305 6.56265 2.38051 6.73814 2.20184C6.84145 2.09669 6.92602 1.91988 6.92602 1.80889C6.92602 1.54921 7.24485 1.22473 7.5 1.22473C7.60906 1.22473 7.78278 1.31079 7.8861 1.41594ZM3.48214 3.98408C3.48214 4.34805 3.51023 4.42929 3.6838 4.56824C3.88133 4.72644 3.95916 4.72971 7.5 4.72971C11.0408 4.72971 11.1187 4.72644 11.3162 4.56824C11.4898 4.42929 11.5179 4.34805 11.5179 3.98408V3.56138H12.4887C13.3802 3.56138 13.474 3.57524 13.6367 3.73071L13.8138 3.90012V11.1446V18.3891L13.6474 18.5694L13.4809 18.7496H7.51071H1.54048L1.36332 18.5803L1.18622 18.4109V11.1664V3.92193L1.3526 3.74161C1.5098 3.57143 1.57355 3.56138 2.50056 3.56138H3.48214V3.98408ZM10.5902 7.19636L9.83694 7.94954L9.38204 7.50791C8.85658 6.99782 8.53745 6.92476 8.24036 7.2466C7.91334 7.60091 8.00189 7.81401 8.82153 8.64509C9.85806 9.69603 9.79469 9.70375 11.1102 8.365C11.9965 7.46289 12.1301 7.29411 12.1301 7.07625C12.1301 6.76307 11.8365 6.44325 11.5489 6.44325C11.392 6.44325 11.1652 6.62139 10.5902 7.19636ZM3.02855 7.2716C2.81809 7.54382 2.82819 7.80989 3.05778 8.04347C3.24283 8.23189 3.2651 8.23469 4.58212 8.23469C5.31719 8.23469 5.97436 8.21288 6.04247 8.18632C6.22936 8.11334 6.40087 7.72047 6.34492 7.49358C6.24895 7.10445 6.09176 7.06636 4.58036 7.06636H3.18712L3.02855 7.2716ZM10.6033 10.6882C10.1963 11.0951 9.82975 11.4281 9.78872 11.4281C9.7477 11.4281 9.52707 11.2353 9.29847 10.9997C8.82038 10.5071 8.52918 10.4388 8.24036 10.7516C7.91334 11.1059 8.00189 11.319 8.82153 12.1501C9.85975 13.2027 9.79898 13.2101 11.1129 11.8728C11.9658 11.0048 12.1297 10.8003 12.1277 10.6071C12.124 10.2592 11.8154 9.94824 11.4739 9.94824C11.4021 9.94824 11.0104 10.2812 10.6033 10.6882ZM3.21429 11.2107C2.82696 11.4367 2.75709 11.8656 3.05778 12.1716C3.24298 12.3601 3.26441 12.3628 4.59421 12.3628H5.94291L6.16661 12.1351C6.28967 12.0099 6.39031 11.832 6.39031 11.7397C6.39031 11.6474 6.28967 11.4695 6.16661 11.3442L5.94291 11.1166L4.65513 11.1189C3.83074 11.1205 3.31224 11.1535 3.21429 11.2107ZM8.26186 14.2675C7.94495 14.59 8.00541 14.8716 8.50653 15.4062L8.93908 15.8678L8.50653 16.3293C7.95444 16.9184 7.91901 17.2997 8.39319 17.5493C8.70084 17.7111 8.88199 17.6367 9.37768 17.1443L9.80135 16.7235L10.143 17.0808C10.3309 17.2772 10.5811 17.4896 10.699 17.5526C11.0902 17.7619 11.5179 17.4971 11.5179 17.0457C11.5179 16.8124 11.4484 16.6965 11.0828 16.3205L10.6477 15.8731L11.0828 15.4088C11.5853 14.8727 11.6572 14.5483 11.3408 14.2457C11.0376 13.9558 10.7917 14.0228 10.2677 14.5383L9.79798 15.0003L9.32526 14.5383C8.79115 14.0163 8.56515 13.9588 8.26186 14.2675ZM3.05778 15.4359C2.81992 15.6779 2.81878 15.9543 3.05441 16.2334L3.23893 16.4519L4.52763 16.473C5.93663 16.4959 6.12214 16.4547 6.29939 16.0785C6.41679 15.8293 6.36589 15.6117 6.14028 15.3978C5.99219 15.2574 5.86515 15.2447 4.61219 15.2447C3.26327 15.2447 3.24314 15.2471 3.05778 15.4359Z" fill="#4188FF"/>
</svg>
