<svg width="35" height="34" viewBox="0 0 35 34" fill="none" xmlns="http://www.w3.org/2000/svg">
<path fill-rule="evenodd" clip-rule="evenodd" d="M0.410973 0.432894L0 0.865789L0.0406896 4.53794C0.0811066 8.20063 0.0820587 8.21095 0.402537 8.48402C0.81283 8.83363 1.39092 8.83363 1.80121 8.48402C2.11733 8.21468 2.12318 8.1625 2.16428 5.26698L2.20592 2.32358L5.00027 2.27972C7.74917 2.23643 7.79871 2.23027 8.05441 1.89728C8.38632 1.4651 8.38632 0.856185 8.05441 0.424007C7.79517 0.0864356 7.78537 0.0854327 4.30815 0.0428599L0.821948 0L0.410973 0.432894ZM26.9474 0.432894C26.7285 0.663389 26.5496 0.990784 26.5496 1.16064C26.5496 1.33051 26.7285 1.6579 26.9474 1.8884L27.3451 2.30739H30.0695H32.7939L32.8357 5.25881C32.8768 8.16293 32.8827 8.21468 33.1988 8.48402C33.6091 8.83363 34.1872 8.83363 34.5975 8.48402C34.9179 8.21095 34.9189 8.20063 34.9593 4.53794L35 0.865789L34.5956 0.439775L34.1913 0.0139042H30.7682H27.3451L26.9474 0.432894ZM16.148 6.3151C15.2861 6.68091 14.3977 7.60203 14.0237 8.51785C13.6277 9.48742 13.6892 10.8513 14.1738 11.843L14.5157 12.5429L13.6583 13.2264C12.896 13.8341 12.7641 13.8923 12.4697 13.751L12.1383 13.5919L12.3907 13.0708C13.5484 10.6805 11.8997 7.87983 9.33496 7.87983C6.77413 7.87983 5.12152 10.6805 6.27579 13.0638L6.52482 13.5778L6.05765 13.8429C5.33177 14.2546 4.25929 15.5441 3.81974 16.5336C3.24356 17.8305 3.14313 18.6269 3.14313 21.9003C3.14313 24.9462 3.23485 25.5135 3.76164 25.7266C3.88275 25.7754 5.63034 25.8156 7.64507 25.8156H11.3082V26.3961C11.3082 27.0513 11.5974 27.7435 11.9267 27.8767C12.2144 27.9929 22.7856 27.9929 23.0733 27.8767C23.4026 27.7435 23.6918 27.0513 23.6918 26.3961V25.8156H27.3549C29.3697 25.8156 31.1173 25.7754 31.2384 25.7266C31.7651 25.5135 31.8569 24.9462 31.8569 21.9003C31.8569 18.515 31.7603 17.8063 31.1073 16.404C30.6336 15.3864 29.493 14.0837 28.7735 13.7384C28.4688 13.5922 28.4686 13.5912 28.7208 13.0708C29.8785 10.6805 28.2298 7.87983 25.665 7.87983C23.1003 7.87983 21.4516 10.6805 22.6093 13.0708L22.8617 13.5919L22.5303 13.751C22.2359 13.8923 22.104 13.8341 21.3417 13.2264L20.4843 12.5429L20.8241 11.8473C21.277 10.9204 21.3655 9.56869 21.0332 8.65244C20.7373 7.8364 19.8777 6.82798 19.1391 6.43078C18.3432 6.00261 17.0059 5.95087 16.148 6.3151ZM18.3082 8.49319C19.012 8.83105 19.3407 9.8485 19.0128 10.675C18.777 11.2695 18.0877 11.767 17.5 11.767C16.6797 11.767 15.799 10.8348 15.799 9.96661C15.799 9.53357 16.2403 8.74877 16.5993 8.54322C17.0349 8.29395 17.8436 8.27015 18.3082 8.49319ZM10.3216 10.5527C10.7958 11.1277 10.6867 12.1093 10.0953 12.5876C9.97646 12.6837 9.63434 12.7622 9.33496 12.7622C8.74517 12.7622 8.44742 12.5885 8.20043 12.1C7.85042 11.4076 8.12925 10.4709 8.77116 10.1833C9.24841 9.96962 9.98544 10.1452 10.3216 10.5527ZM26.6517 10.5527C27.1259 11.1277 27.0168 12.1093 26.4253 12.5876C26.3065 12.6837 25.9644 12.7622 25.665 12.7622C25.0753 12.7622 24.7775 12.5885 24.5305 12.1C24.1805 11.4076 24.4593 10.4709 25.1012 10.1833C25.5785 9.96962 26.3155 10.1452 26.6517 10.5527ZM19.3099 14.4998C20.1926 14.9644 20.6589 15.4493 21.1468 16.41C21.4336 16.9748 21.4482 17.1853 21.4878 21.3361L21.5292 25.6722H17.5H13.4708L13.5122 21.3361C13.5518 17.1853 13.5664 16.9748 13.8532 16.41C14.3411 15.4493 14.8074 14.9644 15.6901 14.4998C16.3868 14.133 16.6824 14.0615 17.5 14.0615C18.3176 14.0615 18.6132 14.133 19.3099 14.4998ZM11.036 15.491C11.3728 15.6702 11.665 15.8318 11.6854 15.8501C11.7058 15.8685 11.6302 16.2959 11.5173 16.8C11.3704 17.4565 11.3116 18.5404 11.3102 20.6194L11.3082 23.5221H8.31433H5.32048V21.0391C5.32048 19.1554 5.37219 18.3963 5.53481 17.8936C5.91204 16.7275 7.03718 15.6332 8.31433 15.1903C8.92167 14.9797 10.3771 15.1406 11.036 15.491ZM27.4509 15.5386C27.8344 15.7436 28.3963 16.2083 28.6994 16.5711C29.5553 17.5952 29.6795 18.1618 29.6795 21.0391V23.5221H26.6857H23.6918L23.6897 20.6194C23.6882 18.5831 23.6287 17.46 23.4904 16.8567C23.382 16.3836 23.2911 15.9592 23.2885 15.9136C23.2841 15.8406 24.2095 15.3659 24.7805 15.148C25.2818 14.9565 26.7694 15.1741 27.4509 15.5386ZM0.402537 25.516C0.0820587 25.7891 0.0811066 25.7994 0.0406896 29.4621L0 33.1342L0.410973 33.5671L0.821948 34L4.30815 33.9571C7.78537 33.9146 7.79517 33.9136 8.05441 33.576C8.38632 33.1438 8.38632 32.5349 8.05441 32.1027C7.79871 31.7697 7.74917 31.7636 5.00027 31.7203L2.20592 31.6764L2.16428 28.733C2.12318 25.8375 2.11733 25.7853 1.80121 25.516C1.39092 25.1664 0.81283 25.1664 0.402537 25.516ZM33.1988 25.516C32.8827 25.7853 32.8768 25.8375 32.8357 28.733L32.7941 31.6764L29.9997 31.7203C27.2508 31.7636 27.2013 31.7697 26.9456 32.1027C26.6137 32.5349 26.6137 33.1438 26.9456 33.576C27.2048 33.9136 27.2146 33.9146 30.6919 33.9571L34.1781 34L34.589 33.5671L35 33.1342L34.9593 29.4621C34.9189 25.7994 34.9179 25.7891 34.5975 25.516C34.1872 25.1664 33.6091 25.1664 33.1988 25.516Z" fill="#D37A19"/>
</svg>
