<svg width="17" height="12" viewBox="0 0 17 12" fill="none" xmlns="http://www.w3.org/2000/svg">
<path fill-rule="evenodd" clip-rule="evenodd" d="M1.31601 0.166798C1.02374 0.281089 0.785249 0.440863 0.559344 0.673808C-0.0197138 1.27083 0.000131079 1.08173 0.000131079 5.99908C0.000131079 10.9675 -0.0244085 10.7479 0.598038 11.3559C0.85218 11.6042 1.08328 11.7531 1.37206 11.855C1.78105 11.9991 1.82607 12 8.5 12C15.1739 12 15.219 11.9991 15.6279 11.855C15.9167 11.7531 16.1478 11.6042 16.402 11.3559C17.0244 10.7479 16.9999 10.9675 16.9999 5.99908C16.9999 1.13342 17.0149 1.28911 16.4876 0.714723C16.3291 0.542129 16.0354 0.317913 15.835 0.216579L15.4706 0.0322549L8.60669 0.0160934L1.74278 0L1.31601 0.166798ZM15.3606 1.23203C15.5064 1.31059 15.6868 1.47173 15.7615 1.59004C15.8913 1.79571 15.8974 1.99176 15.8974 5.99908C15.8974 10.0064 15.8913 10.2025 15.7615 10.4081C15.6868 10.5264 15.5064 10.6876 15.3606 10.7661C15.0969 10.9082 15.0628 10.9089 8.5 10.9089C1.93725 10.9089 1.90311 10.9082 1.63936 10.7661C1.49362 10.6876 1.31317 10.5264 1.23848 10.4081C1.10867 10.2025 1.10262 10.0064 1.10262 5.99908C1.10262 1.99926 1.10888 1.79537 1.23777 1.5912C1.3121 1.47343 1.48814 1.31304 1.62898 1.23476C1.88355 1.09319 1.92316 1.09237 8.49033 1.0908C15.0644 1.08924 15.0968 1.08992 15.3606 1.23203ZM2.46367 2.86721C2.31907 2.97618 2.27625 3.06865 2.27625 3.27139C2.27625 3.47412 2.31907 3.56659 2.46367 3.67556C2.64981 3.81597 2.6905 3.81693 8.5 3.81693C14.3095 3.81693 14.3502 3.81597 14.5363 3.67556C14.6809 3.56659 14.7238 3.47412 14.7238 3.27139C14.7238 3.06865 14.6809 2.97618 14.5363 2.86721C14.3502 2.7268 14.3095 2.72585 8.5 2.72585C2.6905 2.72585 2.64981 2.7268 2.46367 2.86721ZM2.46367 8.86813C2.31907 8.9771 2.27625 9.06957 2.27625 9.27231C2.27625 9.47504 2.31907 9.56751 2.46367 9.67648C2.63772 9.80775 2.74363 9.81785 3.94777 9.81785C5.15191 9.81785 5.25782 9.80775 5.43187 9.67648C5.57647 9.56751 5.61929 9.47504 5.61929 9.27231C5.61929 9.06957 5.57647 8.9771 5.43187 8.86813C5.25782 8.73686 5.15191 8.72677 3.94777 8.72677C2.74363 8.72677 2.63772 8.73686 2.46367 8.86813Z" fill="#82B1FF"/>
</svg>
