<svg width="17" height="18" viewBox="0 0 17 18" fill="none" xmlns="http://www.w3.org/2000/svg">
<path fill-rule="evenodd" clip-rule="evenodd" d="M4.11425 0.177038C3.61057 0.381465 3.07478 0.900821 2.83161 1.42018C2.70817 1.68389 2.66908 1.94483 2.66908 2.50524C2.66908 2.91106 2.70078 3.35047 2.73955 3.4818L2.81009 3.72052H2.14151C1.38308 3.72052 1.07346 3.82842 0.617584 4.25142C0.0409804 4.78658 0.00386016 4.97026 0.00180702 7.2949L0 9.35028L0.216401 9.53014C0.335401 9.6291 0.518377 9.71009 0.623087 9.71009H0.813372L0.837846 12.7266L0.862319 15.7431L1.09375 16.2412C1.38866 16.876 1.92568 17.4437 2.52627 17.7554L2.99758 18H8.5H14.0024L14.4916 17.7461C15.0958 17.4326 15.6043 16.8913 15.9072 16.2393L16.1377 15.7431L16.1631 12.7266L16.1884 9.71009H16.3778C16.482 9.71009 16.6646 9.6291 16.7836 9.53014L17 9.35028L16.9982 7.2949C16.9961 4.97026 16.959 4.78658 16.3824 4.25142C15.9265 3.82833 15.6169 3.72052 14.8578 3.72052C14.201 3.72052 14.1897 3.71687 14.2479 3.52521C14.3652 3.13901 14.3903 2.14656 14.2922 1.77608C13.9554 0.504989 12.5634 -0.27626 11.3172 0.106726C10.706 0.294486 10.2837 0.710023 9.32298 2.06879C8.8832 2.69075 8.51289 3.19969 8.5 3.19969C8.48711 3.19969 8.1168 2.69075 7.67702 2.06879C7.23724 1.44683 6.71048 0.782592 6.50648 0.592662C5.86319 -0.0057741 4.95398 -0.16376 4.11425 0.177038ZM5.41282 1.47382C5.60647 1.54518 5.87075 1.84309 6.41056 2.59873C6.81445 3.1641 7.14493 3.65125 7.14493 3.68137C7.14493 3.71149 6.5813 3.72286 5.89251 3.70663C4.82767 3.68154 4.60569 3.65246 4.41006 3.51236C4.10201 3.29161 3.94203 2.94066 3.94203 2.48545C3.94203 1.6819 4.65209 1.19353 5.41282 1.47382ZM12.4799 1.50525C13.2116 1.90525 13.2729 3.02304 12.5899 3.51236C12.3943 3.65246 12.1723 3.68154 11.1075 3.70663C10.4187 3.72286 9.85507 3.71149 9.85507 3.68137C9.85507 3.65125 10.1861 3.16332 10.5907 2.597C11.0683 1.92842 11.4068 1.53632 11.5556 1.47894C11.8901 1.34995 12.2127 1.35915 12.4799 1.50525ZM7.88406 6.7153V8.3212H4.55797H1.23188L1.23238 7.12763C1.23287 5.85715 1.31606 5.34118 1.54306 5.20124C1.62954 5.14795 2.87612 5.11366 4.78382 5.11201L7.88406 5.1094V6.7153ZM15.4414 5.19725C15.6829 5.3338 15.7671 5.83267 15.7676 7.12763L15.7681 8.3212H12.442H9.11594V6.7153V5.1094H12.2011C14.1246 5.1094 15.3446 5.14248 15.4414 5.19725ZM7.88406 13.1873V16.6646L5.60507 16.6378C3.3458 16.6114 3.32288 16.6092 2.95759 16.393C2.71499 16.2495 2.51846 16.0418 2.38271 15.7853L2.17633 15.3958L2.15071 12.553L2.12508 9.71009H5.00457H7.88406V13.1873ZM14.8493 12.553C14.8246 15.2997 14.8175 15.4081 14.6408 15.7575C14.2315 16.5665 13.901 16.6534 11.2307 16.654L9.11594 16.6545V13.1823V9.71009H11.9954H14.8749L14.8493 12.553Z" fill="#82B1FF"/>
</svg>
