<svg width="36" height="41" viewBox="0 0 36 41" fill="none" xmlns="http://www.w3.org/2000/svg">
<g opacity="0.4">
<mask id="path-1-inside-1_244_2124" fill="white">
<path fill-rule="evenodd" clip-rule="evenodd" d="M16.9641 0.474862L16.5038 0.942841V3.35591V5.76913L14.6043 4.32885C12.4589 2.70221 12.1043 2.59782 11.2773 3.34902C10.8703 3.7187 10.7738 3.92555 10.787 4.39993C10.7961 4.72478 10.9295 5.13208 11.0837 5.30531C11.2377 5.47838 12.5203 6.49872 13.9338 7.57268L16.5038 9.52546V13.6614C16.5038 15.9361 16.4506 17.7679 16.3857 17.732C14.5345 16.7112 9.57179 13.533 9.51509 13.3321C9.47209 13.1798 9.31571 11.7224 9.16751 10.0933C8.85473 6.65706 8.7133 6.17707 7.91403 5.83749C7.39399 5.61671 7.29524 5.62072 6.76733 5.88328C5.93483 6.29763 5.8586 6.67787 6.09831 9.21774C6.21107 10.4127 6.27391 11.4203 6.23784 11.4569C6.20178 11.4936 5.39636 11.0485 4.44779 10.468C3.49937 9.88745 2.52623 9.34166 2.28527 9.2552C1.10156 8.83013 -0.0553723 10.4244 0.671295 11.4792C0.798863 11.6641 1.75799 12.3405 2.80279 12.9822C3.84775 13.6241 4.64702 14.1977 4.57914 14.257C4.51126 14.3164 3.60584 14.7181 2.56702 15.1497C0.571918 15.9787 0.19441 16.2389 0.0320359 16.8967C-0.170814 17.7184 0.62326 18.7389 1.46537 18.7389C1.60506 18.7389 3.12691 18.1558 4.84735 17.443L7.97545 16.1473L11.4521 18.2658C13.3643 19.4308 14.9289 20.4363 14.9289 20.5C14.9289 20.5637 13.3643 21.5692 11.4521 22.7342L7.97545 24.8527L4.84735 23.557C3.12691 22.8442 1.60506 22.2611 1.46537 22.2611C0.62326 22.2611 -0.170814 23.2816 0.0320359 24.1033C0.19441 24.7611 0.571918 25.0213 2.56702 25.8503C3.60584 26.2819 4.51158 26.684 4.57993 26.7438C4.64828 26.8036 3.84601 27.3814 2.79728 28.0277C1.74854 28.6742 0.788941 29.3501 0.664995 29.5301C-0.0560025 30.5764 1.10818 32.1675 2.28527 31.7448C2.52623 31.6583 3.49937 31.1126 4.44779 30.532C5.39636 29.9515 6.20178 29.5064 6.23784 29.5431C6.27391 29.5797 6.21107 30.5873 6.09831 31.7823C5.8586 34.3221 5.93483 34.7024 6.76733 35.1167C7.29524 35.3793 7.39399 35.3833 7.91403 35.1625C8.7133 34.8229 8.85473 34.3429 9.16751 30.9067C9.31571 29.2776 9.47209 27.8202 9.51509 27.6679C9.57179 27.467 14.5345 24.2888 16.3857 23.268C16.4506 23.2321 16.5038 25.0639 16.5038 27.3386V31.4745L13.9338 33.4273C12.5203 34.5013 11.2377 35.5216 11.0837 35.6947C10.9295 35.8679 10.7961 36.2752 10.787 36.6001C10.7738 37.0745 10.8703 37.2813 11.2773 37.651C12.1043 38.4022 12.4589 38.2978 14.6043 36.6712L16.5038 35.2309V37.6441V40.0572L16.9641 40.5251C17.5565 41.1271 18.3435 41.1593 18.9755 40.6071L19.4174 40.2211L19.4678 37.7342L19.518 35.2475L21.4065 36.6795C23.5048 38.2704 23.876 38.3857 24.6812 37.6968C25.0611 37.3719 25.1658 37.1547 25.1658 36.6918C25.1658 36.367 25.0622 35.9507 24.9354 35.7669C24.8088 35.5829 23.5331 34.542 22.1006 33.4534L19.4961 31.4745V27.3386C19.4961 25.0639 19.5494 23.2321 19.6143 23.268C19.6791 23.3039 21.2356 24.2472 23.0729 25.3642C26.1656 27.2448 26.4196 27.4336 26.4959 27.9102C26.5412 28.1934 26.6899 29.6138 26.8261 31.0668C26.9623 32.5197 27.108 33.8767 27.1499 34.0825C27.3764 35.1952 28.833 35.6204 29.6329 34.8074C30.1094 34.3229 30.1289 34.0764 29.8777 31.7285C29.6082 29.2105 29.4942 29.2741 31.7805 30.6663C32.8633 31.3256 33.8767 31.8657 34.0326 31.8662C34.9288 31.8697 35.6841 30.8833 35.4863 29.9677C35.3567 29.3676 35.2894 29.3122 33.0166 27.931L31.1501 26.7967L33.2312 25.9358C35.4126 25.0335 35.8027 24.7723 35.9679 24.1033C36.1711 23.2805 35.3767 22.2611 34.5322 22.2611C34.3912 22.2611 32.8607 22.8465 31.1308 23.562L27.9857 24.8628L24.5283 22.7477C22.6269 21.5844 21.0711 20.573 21.0711 20.5C21.0711 20.427 22.6269 19.4156 24.5283 18.2523L27.9857 16.1372L31.1308 17.438C32.8607 18.1535 34.3912 18.7389 34.5322 18.7389C35.3767 18.7389 36.1711 17.7195 35.9679 16.8967C35.8027 16.2277 35.4126 15.9665 33.2312 15.0642L31.1501 14.2033L33.0166 13.069C35.2894 11.6878 35.3567 11.6324 35.4863 11.0323C35.6841 10.1167 34.9288 9.13032 34.0326 9.13385C33.8767 9.13433 32.8633 9.67435 31.7805 10.3337C29.4942 11.7259 29.6082 11.7895 29.8777 9.27153C30.1289 6.92363 30.1094 6.67707 29.6329 6.1926C28.833 5.3796 27.3764 5.80483 27.1499 6.91755C27.108 7.12328 26.9623 8.48031 26.8261 9.93324C26.6899 11.3862 26.5412 12.8066 26.4959 13.0898C26.4196 13.5664 26.1656 13.7552 23.0729 15.6358C21.2356 16.7528 19.6791 17.6961 19.6143 17.732C19.5494 17.7679 19.4961 15.9361 19.4961 13.6614V9.52546L22.1006 7.54659C23.5331 6.45805 24.8088 5.41706 24.9354 5.23311C25.0622 5.04931 25.1658 4.63304 25.1658 4.30819C25.1658 3.84534 25.0611 3.62808 24.6812 3.30323C23.876 2.61431 23.5048 2.72958 21.4065 4.32052L19.518 5.75248L19.4678 3.26577L19.4174 0.778896L18.9755 0.392889C18.3435 -0.159304 17.5565 -0.127124 16.9641 0.474862Z"/>
</mask>
<path fill-rule="evenodd" clip-rule="evenodd" d="M16.9641 0.474862L16.5038 0.942841V3.35591V5.76913L14.6043 4.32885C12.4589 2.70221 12.1043 2.59782 11.2773 3.34902C10.8703 3.7187 10.7738 3.92555 10.787 4.39993C10.7961 4.72478 10.9295 5.13208 11.0837 5.30531C11.2377 5.47838 12.5203 6.49872 13.9338 7.57268L16.5038 9.52546V13.6614C16.5038 15.9361 16.4506 17.7679 16.3857 17.732C14.5345 16.7112 9.57179 13.533 9.51509 13.3321C9.47209 13.1798 9.31571 11.7224 9.16751 10.0933C8.85473 6.65706 8.7133 6.17707 7.91403 5.83749C7.39399 5.61671 7.29524 5.62072 6.76733 5.88328C5.93483 6.29763 5.8586 6.67787 6.09831 9.21774C6.21107 10.4127 6.27391 11.4203 6.23784 11.4569C6.20178 11.4936 5.39636 11.0485 4.44779 10.468C3.49937 9.88745 2.52623 9.34166 2.28527 9.2552C1.10156 8.83013 -0.0553723 10.4244 0.671295 11.4792C0.798863 11.6641 1.75799 12.3405 2.80279 12.9822C3.84775 13.6241 4.64702 14.1977 4.57914 14.257C4.51126 14.3164 3.60584 14.7181 2.56702 15.1497C0.571918 15.9787 0.19441 16.2389 0.0320359 16.8967C-0.170814 17.7184 0.62326 18.7389 1.46537 18.7389C1.60506 18.7389 3.12691 18.1558 4.84735 17.443L7.97545 16.1473L11.4521 18.2658C13.3643 19.4308 14.9289 20.4363 14.9289 20.5C14.9289 20.5637 13.3643 21.5692 11.4521 22.7342L7.97545 24.8527L4.84735 23.557C3.12691 22.8442 1.60506 22.2611 1.46537 22.2611C0.62326 22.2611 -0.170814 23.2816 0.0320359 24.1033C0.19441 24.7611 0.571918 25.0213 2.56702 25.8503C3.60584 26.2819 4.51158 26.684 4.57993 26.7438C4.64828 26.8036 3.84601 27.3814 2.79728 28.0277C1.74854 28.6742 0.788941 29.3501 0.664995 29.5301C-0.0560025 30.5764 1.10818 32.1675 2.28527 31.7448C2.52623 31.6583 3.49937 31.1126 4.44779 30.532C5.39636 29.9515 6.20178 29.5064 6.23784 29.5431C6.27391 29.5797 6.21107 30.5873 6.09831 31.7823C5.8586 34.3221 5.93483 34.7024 6.76733 35.1167C7.29524 35.3793 7.39399 35.3833 7.91403 35.1625C8.7133 34.8229 8.85473 34.3429 9.16751 30.9067C9.31571 29.2776 9.47209 27.8202 9.51509 27.6679C9.57179 27.467 14.5345 24.2888 16.3857 23.268C16.4506 23.2321 16.5038 25.0639 16.5038 27.3386V31.4745L13.9338 33.4273C12.5203 34.5013 11.2377 35.5216 11.0837 35.6947C10.9295 35.8679 10.7961 36.2752 10.787 36.6001C10.7738 37.0745 10.8703 37.2813 11.2773 37.651C12.1043 38.4022 12.4589 38.2978 14.6043 36.6712L16.5038 35.2309V37.6441V40.0572L16.9641 40.5251C17.5565 41.1271 18.3435 41.1593 18.9755 40.6071L19.4174 40.2211L19.4678 37.7342L19.518 35.2475L21.4065 36.6795C23.5048 38.2704 23.876 38.3857 24.6812 37.6968C25.0611 37.3719 25.1658 37.1547 25.1658 36.6918C25.1658 36.367 25.0622 35.9507 24.9354 35.7669C24.8088 35.5829 23.5331 34.542 22.1006 33.4534L19.4961 31.4745V27.3386C19.4961 25.0639 19.5494 23.2321 19.6143 23.268C19.6791 23.3039 21.2356 24.2472 23.0729 25.3642C26.1656 27.2448 26.4196 27.4336 26.4959 27.9102C26.5412 28.1934 26.6899 29.6138 26.8261 31.0668C26.9623 32.5197 27.108 33.8767 27.1499 34.0825C27.3764 35.1952 28.833 35.6204 29.6329 34.8074C30.1094 34.3229 30.1289 34.0764 29.8777 31.7285C29.6082 29.2105 29.4942 29.2741 31.7805 30.6663C32.8633 31.3256 33.8767 31.8657 34.0326 31.8662C34.9288 31.8697 35.6841 30.8833 35.4863 29.9677C35.3567 29.3676 35.2894 29.3122 33.0166 27.931L31.1501 26.7967L33.2312 25.9358C35.4126 25.0335 35.8027 24.7723 35.9679 24.1033C36.1711 23.2805 35.3767 22.2611 34.5322 22.2611C34.3912 22.2611 32.8607 22.8465 31.1308 23.562L27.9857 24.8628L24.5283 22.7477C22.6269 21.5844 21.0711 20.573 21.0711 20.5C21.0711 20.427 22.6269 19.4156 24.5283 18.2523L27.9857 16.1372L31.1308 17.438C32.8607 18.1535 34.3912 18.7389 34.5322 18.7389C35.3767 18.7389 36.1711 17.7195 35.9679 16.8967C35.8027 16.2277 35.4126 15.9665 33.2312 15.0642L31.1501 14.2033L33.0166 13.069C35.2894 11.6878 35.3567 11.6324 35.4863 11.0323C35.6841 10.1167 34.9288 9.13032 34.0326 9.13385C33.8767 9.13433 32.8633 9.67435 31.7805 10.3337C29.4942 11.7259 29.6082 11.7895 29.8777 9.27153C30.1289 6.92363 30.1094 6.67707 29.6329 6.1926C28.833 5.3796 27.3764 5.80483 27.1499 6.91755C27.108 7.12328 26.9623 8.48031 26.8261 9.93324C26.6899 11.3862 26.5412 12.8066 26.4959 13.0898C26.4196 13.5664 26.1656 13.7552 23.0729 15.6358C21.2356 16.7528 19.6791 17.6961 19.6143 17.732C19.5494 17.7679 19.4961 15.9361 19.4961 13.6614V9.52546L22.1006 7.54659C23.5331 6.45805 24.8088 5.41706 24.9354 5.23311C25.0622 5.04931 25.1658 4.63304 25.1658 4.30819C25.1658 3.84534 25.0611 3.62808 24.6812 3.30323C23.876 2.61431 23.5048 2.72958 21.4065 4.32052L19.518 5.75248L19.4678 3.26577L19.4174 0.778896L18.9755 0.392889C18.3435 -0.159304 17.5565 -0.127124 16.9641 0.474862Z" fill="#4188FF" stroke="white" stroke-width="1.2" mask="url(#path-1-inside-1_244_2124)"/>
</g>
</svg>
