<svg width="25" height="24" viewBox="0 0 25 24" fill="none" xmlns="http://www.w3.org/2000/svg">
<path d="M11.6751 1.20359C12.0723 0.624014 12.9277 0.624014 13.3249 1.20359L17.06 6.65364C17.1901 6.84337 17.3815 6.98247 17.6021 7.04751L23.9397 8.9157C24.6136 9.11437 24.8779 9.92783 24.4495 10.4847L20.4204 15.7212C20.2801 15.9035 20.207 16.1286 20.2133 16.3585L20.395 22.9632C20.4143 23.6655 19.7223 24.1683 19.0603 23.9329L12.835 21.7191C12.6183 21.6421 12.3817 21.6421 12.165 21.7191L5.93968 23.9329C5.27767 24.1683 4.5857 23.6655 4.60501 22.9632L4.78667 16.3585C4.79299 16.1286 4.71986 15.9035 4.5796 15.7212L0.550517 10.4847C0.122054 9.92783 0.386366 9.11437 1.06032 8.9157L7.39785 7.04751C7.61847 6.98247 7.80994 6.84337 7.93997 6.65364L11.6751 1.20359Z" fill="#E6ECF6"/>
</svg>
