<svg width="37" height="27" viewBox="0 0 37 27" fill="none" xmlns="http://www.w3.org/2000/svg">
<path d="M11 13C11 13 16.8203 13.098 20.4592 9.45914C24.0981 5.82024 24 -2.45903e-05 24 -2.45903e-05C24 -2.45903e-05 23.902 5.82024 27.5409 9.45914C31.1798 13.098 37 13 37 13C37 13 31.1798 12.902 27.5409 16.5409C23.902 20.1798 24 26 24 26C24 26 24.0981 20.1798 20.4592 16.5409C16.8203 12.902 11 13 11 13Z" fill="#4188FF"/>
<path d="M0 7.58984C0 7.58984 2.95037 7.63954 4.79497 5.79494C6.63957 3.95033 6.58988 0.999964 6.58988 0.999964C6.58988 0.999964 6.54019 3.95033 8.38479 5.79493C10.2294 7.63954 13.1798 7.58984 13.1798 7.58984C13.1798 7.58984 10.2294 7.54015 8.38479 9.38475C6.54019 11.2294 6.58988 14.1797 6.58988 14.1797C6.58988 14.1797 6.63957 11.2294 4.79497 9.38475C2.95037 7.54015 0 7.58984 0 7.58984Z" fill="#4188FF"/>
<path d="M9 23C9 23 10.7908 23.0302 11.9105 21.9105C13.0301 20.7909 13 19 13 19C13 19 12.9698 20.7909 14.0895 21.9105C15.2091 23.0302 17 23 17 23C17 23 15.2091 22.9698 14.0895 24.0895C12.9698 25.2091 13 27 13 27C13 27 13.0301 25.2091 11.9105 24.0895C10.7908 22.9698 9 23 9 23Z" fill="#4188FF"/>
</svg>
