<svg width="18" height="15" viewBox="0 0 18 15" fill="none" xmlns="http://www.w3.org/2000/svg">
<path opacity="0.8" fill-rule="evenodd" clip-rule="evenodd" d="M17.1476 0.0595804C16.6393 0.175251 0.462978 6.30809 0.240325 6.46957C-0.0801085 6.70193 -0.0801085 7.02956 0.240325 7.33632C0.435888 7.52355 0.773889 7.65325 2.5367 8.21723L4.60379 8.87866L4.86482 8.71535C7.1904 7.26056 14.9825 2.5611 15.1255 2.52708C15.3822 2.46603 15.4614 2.64655 15.2769 2.87186C15.2037 2.9613 13.3265 4.60434 11.1054 6.5231L7.06708 10.0118L8.38931 10.9851C9.11653 11.5203 10.6073 12.6178 11.7022 13.4239C13.7854 14.9576 14.0206 15.0886 14.4711 14.9644C14.7171 14.8966 15.0013 14.6795 15.1193 14.4692C15.2097 14.3081 18.0013 0.773052 18 0.502612C17.9986 0.235356 17.9393 0.149366 17.6952 0.0602581C17.4755 -0.0199726 17.4973 -0.0199728 17.1476 0.0595804Z" fill="#4188FF"/>
</svg>
