<svg width="17" height="14" viewBox="0 0 17 14" fill="none" xmlns="http://www.w3.org/2000/svg">
<path fill-rule="evenodd" clip-rule="evenodd" d="M3.02495 0.0532338C2.40296 0.186832 1.80262 0.793231 1.62971 1.46258C1.58708 1.62729 1.56172 3.27521 1.56152 5.88943L1.56112 10.0539L0.831363 11.1247C0.414492 11.7363 0.0717255 12.3145 0.0319507 12.4732C-0.0966034 12.9865 0.173055 13.5935 0.655996 13.8777C0.84896 13.9912 1.41364 14 8.50012 14C15.5866 14 16.1513 13.9912 16.3443 13.8777C16.8283 13.5929 17.0969 12.9867 16.9677 12.471C16.9273 12.3097 16.5889 11.738 16.1703 11.1236L15.4431 10.0562L15.4245 5.74791C15.4061 1.46286 15.4051 1.43795 15.2597 1.14578C15.024 0.672266 14.7939 0.425124 14.3902 0.212095L14.0115 0.0121981L8.66613 0.00099351C5.72618 -0.00521536 3.18764 0.0183357 3.02495 0.0532338ZM14.0703 1.26739C14.452 1.59011 14.4431 1.48306 14.4431 5.75362V9.68234H8.50012H2.55715V5.75362C2.55715 1.48306 2.54825 1.59011 2.93 1.26739C3.1055 1.11902 3.1308 1.11838 8.50012 1.11838C13.8695 1.11838 13.8948 1.11902 14.0703 1.26739ZM6.97055 2.18345C6.60866 2.34631 6.53702 2.81889 6.8327 3.09223C7.01066 3.25673 7.03689 3.25937 8.50012 3.25937C9.96336 3.25937 9.98958 3.25673 10.1675 3.09223C10.3963 2.88077 10.4118 2.53478 10.2027 2.30977C10.0625 2.15897 10.0027 2.15262 8.5814 2.13792C7.76977 2.12949 7.04486 2.15005 6.97055 2.18345ZM15.3364 11.7341C15.6824 12.2345 15.9665 12.7002 15.9679 12.7689C15.9702 12.8872 15.5713 12.8938 8.50012 12.8938C1.42898 12.8938 1.03004 12.8872 1.0323 12.7689C1.03362 12.7002 1.31902 12.2345 1.66657 11.7341L2.29845 10.8242H8.50291H14.7074L15.3364 11.7341Z" fill="#4188FF"/>
</svg>
