<svg width="17" height="16" viewBox="0 0 17 16" fill="none" xmlns="http://www.w3.org/2000/svg">
<path fill-rule="evenodd" clip-rule="evenodd" d="M4.7869 0.0552734C3.83807 0.266629 3.16895 1.11087 3.15535 2.11379C3.14941 2.55079 3.17096 2.63522 3.32872 2.793C3.56705 3.03132 3.9155 3.0348 4.14959 2.80122C4.27986 2.67116 4.33366 2.51421 4.37022 2.15685C4.42774 1.59439 4.52167 1.41355 4.84144 1.2497C5.0632 1.13608 5.44866 1.1271 10.1002 1.1271C15.6885 1.1271 15.3464 1.09798 15.6737 1.60108C15.8099 1.81055 15.8185 1.96806 15.8187 4.26302C15.819 6.49263 15.8073 6.72265 15.6832 6.93958C15.4743 7.30482 15.1498 7.43154 14.4234 7.43154C13.8667 7.43154 13.7878 7.4484 13.6234 7.60256C13.5084 7.71033 13.441 7.85313 13.441 7.98884C13.441 8.12454 13.5084 8.26735 13.6234 8.37511C13.7914 8.53269 13.8613 8.54613 14.5124 8.54613C15.6506 8.54613 16.3556 8.19824 16.8006 7.41698C16.9685 7.12224 16.9712 7.08009 16.9927 4.41112C17.0117 2.06824 16.9985 1.65855 16.8946 1.36541C16.7333 0.910239 16.2184 0.386309 15.7283 0.178715L15.336 0.0125008L10.2084 0.00114599C7.22066 -0.00547193 4.95812 0.0170984 4.7869 0.0552734ZM6.48934 3.14417C6.37431 3.25194 6.3069 3.39475 6.3069 3.53045C6.3069 3.66615 6.37431 3.80896 6.48934 3.91672L6.67171 4.08775H10.0805H13.4894L13.6633 3.91415C13.7664 3.81133 13.8373 3.65486 13.8373 3.53045C13.8373 3.40603 13.7664 3.24957 13.6633 3.14675L13.4894 2.97315H10.0805H6.67171L6.48934 3.14417ZM2.03389 3.90593C0.646606 4.52251 0.341178 6.26616 1.45224 7.22624C1.91684 7.62764 2.30543 7.7765 2.89384 7.77832C3.8342 7.78124 4.48348 7.41517 4.8899 6.65278C5.07605 6.30349 5.11789 6.13965 5.11789 5.75964C5.11789 4.91861 4.52257 4.1037 3.72117 3.84769C3.2038 3.68245 2.48058 3.70739 2.03389 3.90593ZM3.41567 4.96194C3.70348 5.10147 3.92836 5.45125 3.92836 5.75964C3.92836 6.57957 2.83565 6.96807 2.24078 6.35964C2.03381 6.14794 1.99673 6.05773 1.99673 5.76598C1.99673 5.06156 2.74573 4.63717 3.41567 4.96194ZM6.48934 5.37336C6.37431 5.48113 6.3069 5.62394 6.3069 5.75964C6.3069 5.89534 6.37431 6.03815 6.48934 6.14592L6.67171 6.31694H8.49915H10.3266L10.5089 6.14592C10.624 6.03815 10.6914 5.89534 10.6914 5.75964C10.6914 5.62394 10.624 5.48113 10.5089 5.37336L10.3266 5.20234H8.49915H6.67171L6.48934 5.37336ZM12.1385 5.29924C12.0579 5.35254 11.3732 6.30928 10.6171 7.42534L9.24228 9.45453L9.01934 9.40089C8.42922 9.25885 8.07088 9.34481 6.95254 9.89647L5.88354 10.4238L5.79154 10.1293C5.57484 9.43579 4.92601 8.7524 4.16802 8.41935C3.78783 8.2523 3.65696 8.23265 2.92565 8.23265C2.16498 8.23265 2.07758 8.24714 1.667 8.44164C1.05637 8.73088 0.553715 9.21141 0.265899 9.7809L0.0274277 10.2529L0.00543118 12.865C-0.00668189 14.3016 0.00216139 15.5472 0.0250499 15.6328C0.066814 15.7888 0.405682 16 0.614131 16C0.675142 16 0.818939 15.9244 0.933604 15.832L1.14213 15.6639L1.17928 13.0573L1.21644 10.4506L1.44131 10.1097C2.0139 9.24213 3.30338 9.04826 4.08709 9.712C4.50845 10.0688 4.67721 10.4196 4.72752 11.0426C4.77531 11.6348 4.94972 11.8899 5.30672 11.8899C5.41433 11.8899 6.13687 11.5764 6.91233 11.1933C7.77177 10.7687 8.40767 10.4967 8.54084 10.4967C8.95112 10.4967 9.20787 10.9682 8.96123 11.2688C8.79685 11.4692 5.47333 13.0888 5.15505 13.1236C4.69341 13.1741 4.41496 12.9519 3.91171 12.1314C3.39865 11.2949 3.18203 11.0936 2.8578 11.1523C2.56991 11.2043 2.3683 11.4263 2.3683 11.691C2.3683 11.8146 2.56032 12.2082 2.85654 12.6918C3.4069 13.5902 3.81094 13.9784 4.38063 14.1558L4.74632 14.2697V14.9202C4.74632 15.6844 4.7707 15.7632 5.04893 15.8981C5.33786 16.0382 5.44784 16.0269 5.68966 15.8321C5.88978 15.6711 5.89967 15.633 5.93534 14.8867L5.97249 14.1092L7.71886 13.2387C9.54362 12.3291 9.87617 12.1071 10.1043 11.6461C10.2541 11.3435 10.2891 10.7525 10.174 10.4687C10.1099 10.3107 10.2562 10.0662 11.586 8.10817C12.5809 6.6431 13.0694 5.86135 13.0694 5.73408C13.0694 5.32885 12.4976 5.06177 12.1385 5.29924Z" fill="#FF931E"/>
</svg>
