<svg width="17" height="15" viewBox="0 0 17 15" fill="none" xmlns="http://www.w3.org/2000/svg">
<path fill-rule="evenodd" clip-rule="evenodd" d="M2.4048 0.0882084C1.2025 0.458948 0.379243 1.31472 0.128365 2.45448C-0.0427883 3.23202 -0.0427883 9.24411 0.128365 10.0217C0.342103 10.9929 0.994859 11.7758 1.95782 12.216L2.48607 12.4575H8.5H14.5139L15.0585 12.2092C16.0127 11.774 16.6571 10.9966 16.8716 10.0217C17.0428 9.24411 17.0428 3.23202 16.8716 2.45448C16.6571 1.47956 16.0127 0.70217 15.0585 0.266967L14.5139 0.0186606L8.6219 0.00332729C4.01897 -0.00864214 2.65877 0.00989866 2.4048 0.0882084ZM14.2609 1.34203C14.7963 1.49708 15.1529 1.78513 15.3995 2.2614L15.6111 2.67016V6.23807V9.80597L15.3995 10.2147C15.1529 10.691 14.7963 10.9791 14.2609 11.1341C13.696 11.2978 3.30396 11.2978 2.73914 11.1341C2.20374 10.9791 1.84713 10.691 1.60048 10.2147L1.38893 9.80597V6.23807V2.67016L1.60048 2.2614C1.8321 1.814 2.16587 1.5272 2.656 1.35431C3.12566 1.18869 13.6929 1.17743 14.2609 1.34203ZM6.59017 3.12211C6.43373 3.22302 6.22348 3.46241 6.12287 3.65408C5.94595 3.99118 5.94002 4.07512 5.94002 6.23807C5.94002 8.40101 5.94595 8.48496 6.12287 8.82206C6.39179 9.33455 6.7623 9.5457 7.3216 9.50549C7.72136 9.4767 7.97468 9.35849 9.71904 8.38678C10.7918 7.78924 11.7668 7.20806 11.8857 7.09517C12.0046 6.98236 12.1474 6.74337 12.2033 6.56406C12.3306 6.15491 12.2039 5.68294 11.8857 5.38096C11.7668 5.26807 10.7918 4.68689 9.71904 4.08936C7.97468 3.11765 7.72136 2.99944 7.3216 2.97065C6.9528 2.94413 6.82488 2.97057 6.59017 3.12211ZM9.18543 5.26017C10.1242 5.7765 10.8923 6.21655 10.8923 6.23807C10.8923 6.27515 7.56565 8.12579 7.40002 8.18079C7.35101 8.19714 7.3216 7.46928 7.3216 6.23807C7.3216 5.00686 7.35101 4.27899 7.40002 4.29534C7.44317 4.30966 8.2466 4.74385 9.18543 5.26017ZM1.55212 13.9432C1.4394 14.0587 1.36187 14.2344 1.36187 14.3741C1.36187 14.5139 1.4394 14.6896 1.55212 14.805L1.74237 15H8.5H15.2576L15.4479 14.805C15.6954 14.5514 15.6954 14.1969 15.4479 13.9432L15.2576 13.7483H8.5H1.74237L1.55212 13.9432Z" fill="#4188FF"/>
</svg>
