<svg width="23" height="23" viewBox="0 0 23 23" fill="none" xmlns="http://www.w3.org/2000/svg">
<path fill-rule="evenodd" clip-rule="evenodd" d="M10.0064 0.0489545C7.24931 0.488251 5.00814 1.6562 3.16736 3.61301C0.183324 6.78517 -0.768252 11.2149 0.637829 15.3881C1.77364 18.7589 4.48293 21.4555 7.89379 22.6101C9.48303 23.148 10.1177 23.1319 10.4173 22.5458C10.6065 22.1758 10.5729 21.7934 10.325 21.4954C10.1488 21.2837 9.94551 21.1922 9.28634 21.0287C7.12323 20.492 5.19534 19.2267 3.85082 17.461C2.04042 15.0835 1.45024 11.7306 2.31498 8.73644C3.148 5.85246 5.53694 3.37922 8.43683 2.39882C10.7732 1.60888 13.4511 1.77242 15.6008 2.8363C16.875 3.46697 16.8306 3.39626 16.3864 4.08593C15.987 4.70608 15.9293 4.92355 16.142 5.00614C16.2654 5.054 19.1343 4.83254 19.5712 4.74144C19.6815 4.71841 19.8355 4.6012 19.9134 4.4809C20.0463 4.27576 20.0322 4.17912 19.6866 2.91862C19.1212 0.857021 19.0681 0.713792 18.8689 0.713792C18.7633 0.713792 18.5814 0.87914 18.4056 1.13487C18.2464 1.36648 18.0517 1.63871 17.9727 1.73988L17.8294 1.9239L17.5695 1.73806C16.6522 1.08193 14.7459 0.347923 13.3755 0.123107C12.638 0.00208778 10.5844 -0.0431474 10.0064 0.0489545ZM10.3805 4.27766C10.1867 4.48652 10.1857 4.50656 10.1864 8.42496L10.1871 12.3625L13.6215 14.1529C15.9882 15.3866 17.1455 15.9432 17.3438 15.9432C17.9659 15.9432 18.2893 15.1985 17.8698 14.732C17.7589 14.6088 16.3374 13.8131 14.711 12.9641L11.7539 11.4204L11.7091 7.99337C11.6844 6.10864 11.6293 4.49396 11.5865 4.4053C11.3981 4.01486 10.6939 3.94035 10.3805 4.27766ZM20.6801 6.92885C20.2964 7.25538 20.2493 7.62751 20.5088 8.28074C20.7466 8.87895 21.0414 9.15172 21.4633 9.16387C21.8662 9.17547 22.1601 8.99081 22.3361 8.61561C22.4802 8.30848 22.4782 8.2675 22.2912 7.68017C22.0614 6.9585 21.7955 6.69679 21.2922 6.69679C21.0587 6.69679 20.8676 6.76922 20.6801 6.92885ZM21.5461 10.3735C21.1943 10.5666 21.1179 10.7718 21.1201 11.518C21.1223 12.2199 21.2296 12.4633 21.6275 12.6692C22.3183 13.0265 23 12.4697 23 11.5483C23 10.5031 22.3162 9.95072 21.5461 10.3735ZM21.3322 13.83C20.9345 13.909 20.4013 14.7865 20.4013 15.3618C20.4013 15.8858 20.8072 16.3008 21.3229 16.3038C21.8069 16.3067 22.0692 16.0928 22.2797 15.5237C22.6022 14.6517 22.4764 14.1499 21.871 13.894C21.7066 13.8244 21.5606 13.7731 21.5467 13.7799C21.5328 13.7867 21.4362 13.8092 21.3322 13.83ZM19.5338 17.118C19.4262 17.1641 19.1742 17.4119 18.9737 17.6685C18.508 18.2645 18.4675 18.7667 18.8555 19.1343C19.1808 19.4424 19.4433 19.5134 19.8074 19.3918C20.0905 19.2973 20.5149 18.8572 20.7452 18.4195C21.1338 17.6807 20.3028 16.7879 19.5338 17.118ZM16.5344 19.8376C15.8396 20.2791 15.67 20.7136 15.9665 21.2935C16.2382 21.825 16.7902 21.8886 17.5094 21.4714C18.1944 21.0739 18.4009 20.5796 18.1153 20.0207C17.842 19.4861 17.204 19.4122 16.5344 19.8376ZM13.3467 21.1077C12.8851 21.2187 12.6204 21.4459 12.5071 21.8284C12.4154 22.1382 12.4241 22.2237 12.575 22.4851C12.8595 22.9776 13.1139 23.0713 13.8309 22.9476C14.3286 22.8617 14.488 22.7904 14.6886 22.5641C15.244 21.9373 14.8419 21.0094 14.0234 21.029C13.8102 21.0341 13.5057 21.0696 13.3467 21.1077Z" fill="#4188FF"/>
</svg>
