<svg width="29" height="29" viewBox="0 0 29 29" fill="none" xmlns="http://www.w3.org/2000/svg">
<path fill-rule="evenodd" clip-rule="evenodd" d="M12.6292 0.0256463C10.6168 0.383993 9.23168 0.837497 7.75854 1.62002C3.81473 3.7153 1.06152 7.44747 0.196091 11.8713C-0.0653636 13.2078 -0.0653636 15.8122 0.196091 17.1488C1.06152 21.5726 3.81473 25.3048 7.75854 27.4001C8.94393 28.0298 9.87455 28.3826 11.2687 28.7309C12.212 28.9666 12.6135 29 14.5 29C16.3865 29 16.788 28.9666 17.7313 28.7309C19.1255 28.3826 20.0561 28.0298 21.2415 27.4001C25.1853 25.3048 27.9385 21.5726 28.8039 17.1488C29.0654 15.8122 29.0654 13.2078 28.8039 11.8713C27.8317 6.90131 24.4163 2.76623 19.7535 0.913782C18.1616 0.281332 16.9083 0.0513397 14.8401 0.0118898C13.78 -0.00834683 12.7851 -0.0020937 12.6292 0.0256463ZM16.0306 11.302C20.3893 14.1136 20.3958 14.1184 20.3958 14.51C20.3958 14.9017 20.3893 14.9065 16.0306 17.7181C13.6298 19.2668 11.5984 20.5342 11.5163 20.5346C11.4343 20.5352 11.2684 20.4826 11.1478 20.4179C10.9354 20.3038 10.9285 20.1182 10.9285 14.5117C10.9285 9.11881 10.9421 8.71533 11.1269 8.60732C11.2361 8.54354 11.4019 8.49034 11.4954 8.48886C11.589 8.48738 13.6298 9.7533 16.0306 11.302Z" fill="#FF931E"/>
</svg>
