<svg width="13" height="12" viewBox="0 0 13 12" fill="none" xmlns="http://www.w3.org/2000/svg">
<path fill-rule="evenodd" clip-rule="evenodd" d="M9.40785 0.0121067C5.94612 0.72898 0.532221 1.90722 0.397399 1.97319C0.28077 2.03024 0.174048 2.14919 0.102727 2.30163C-0.00515364 2.53231 -0.00851374 2.69681 0.00643424 7.00605C0.0217299 11.4191 0.0232939 11.4732 0.141371 11.6227C0.207073 11.706 0.332799 11.8249 0.420806 11.887C0.579962 11.9994 0.611943 12 6.51095 12C12.41 12 12.4419 11.9994 12.6011 11.887C12.6891 11.8249 12.8148 11.706 12.8805 11.6227C12.9986 11.4733 13 11.4242 13 7.64385C13 3.86349 12.9986 3.81445 12.8805 3.66497C12.8148 3.58174 12.6891 3.46283 12.6011 3.40069C12.443 3.28902 12.3803 3.28738 7.21084 3.26031C2.8947 3.23768 1.96381 3.21976 1.88478 3.15774C1.74075 3.04464 1.75894 2.68831 1.91584 2.55012C2.04098 2.43982 2.0962 2.4384 6.20324 2.4384H10.3638V1.51972C10.3638 0.728432 10.3489 0.574625 10.2559 0.410132C10.0996 0.133695 9.70808 -0.05003 9.40785 0.0121067ZM11.1597 7.07465C11.3663 7.19843 11.4839 7.41481 11.4839 7.67125C11.4839 7.94917 11.3595 8.15377 11.0994 8.3038C10.483 8.65925 9.70878 7.98511 10.0393 7.38073C10.2619 6.97345 10.7623 6.83673 11.1597 7.07465Z" fill="#FF931E"/>
</svg>
