<svg width="22" height="12" viewBox="0 0 22 12" fill="none" xmlns="http://www.w3.org/2000/svg">
<path opacity="0.8" fill-rule="evenodd" clip-rule="evenodd" d="M8.88627 0.0410198C7.96288 0.170051 7.65376 0.295615 7.34852 0.665786C7.24697 0.788957 7.2732 0.814383 7.58439 0.894543C8.40029 1.10472 8.62633 1.62745 8.63832 3.33186C8.64669 4.52443 8.51271 5.43302 8.28951 5.69661C7.95304 6.09427 7.32497 5.78139 6.68886 4.89939C6.49759 4.63423 5.91282 3.59727 5.38931 2.59498C4.54589 0.980398 4.40328 0.756182 4.13833 0.627646C3.87027 0.497541 3.6558 0.488048 2.07059 0.535681C1.09784 0.564823 0.233976 0.622198 0.15098 0.662979C0.0578039 0.708797 0 0.83238 0 0.985765C0 1.314 0.893373 3.17823 1.7908 4.72248C3.55995 7.76706 5.18682 9.72961 6.77255 10.7321C8.33058 11.7172 9.18366 11.9587 11.104 11.9587C12.3724 11.9587 12.4402 11.9503 12.6289 11.7697C12.7903 11.6153 12.8365 11.457 12.8808 10.9072C12.9881 9.57523 13.492 8.98877 14.218 9.35052C14.3462 9.41442 14.9015 9.92567 15.4522 10.4866C16.1122 11.1591 16.612 11.5907 16.9189 11.7533L17.3843 12L19.4549 11.9795C21.3146 11.9611 21.5475 11.9435 21.7412 11.8062C22.0299 11.6016 22.0663 11.1684 21.8317 10.7283C21.5656 10.2293 20.471 9.01833 19.5913 8.24992C18.078 6.92798 18.0809 6.87308 19.7755 4.72561C21.4365 2.62066 22 1.70646 22 1.11678C22 0.559374 21.9599 0.550706 19.4329 0.562099C18.2226 0.56763 17.1649 0.606595 17.0826 0.648698C17.0003 0.690883 16.7882 1.05172 16.6113 1.45071C15.666 3.58208 14.0497 5.84975 13.4758 5.84975C13.3881 5.84975 13.2223 5.75374 13.1072 5.63635L12.898 5.42295L12.8918 3.1391C12.8877 1.63711 12.8521 0.778968 12.7878 0.632517C12.6548 0.329628 12.3886 0.1826 11.7822 0.0773436C11.3097 -0.00471481 9.38632 -0.0288207 8.88627 0.0410198Z" fill="#4188FF"/>
</svg>
