<svg width="21" height="14" viewBox="0 0 21 14" fill="none" xmlns="http://www.w3.org/2000/svg">
<path opacity="0.8" fill-rule="evenodd" clip-rule="evenodd" d="M5.52012 0.0706298C2.92443 0.187097 1.98878 0.350923 1.38132 0.795278C0.366475 1.53742 0.107004 2.55103 0.014926 6.13195C-0.0658385 9.27498 0.184713 11.6612 0.680283 12.4681C0.941735 12.8938 1.3961 13.2789 1.87598 13.4814C2.83697 13.8871 5.98885 14.0471 11.861 13.9882C18.258 13.9241 19.1416 13.8052 20.0259 12.8897C20.7918 12.0969 20.9971 10.8638 21 7.03816C21.0032 2.76001 20.7446 1.56831 19.6482 0.80891C18.9747 0.342491 18.1045 0.197735 15.1821 0.0662958C13.1742 -0.0240882 7.57449 -0.0214878 5.52012 0.0706298ZM11.2075 5.49942C12.6668 6.30003 13.8608 6.97835 13.8608 7.00664C13.8608 7.05967 8.55969 9.99317 8.46389 9.99317C8.43449 9.99317 8.41046 8.64277 8.41046 6.99222C8.41046 5.32307 8.44234 4.00285 8.48231 4.0175C8.52178 4.03192 9.74811 4.69881 11.2075 5.49942Z" fill="#4188FF"/>
</svg>
