<svg width="107" height="98" viewBox="0 0 107 98" fill="none" xmlns="http://www.w3.org/2000/svg">
<g clip-path="url(#clip0_244_1990)">
<path fill-rule="evenodd" clip-rule="evenodd" d="M56.1783 0.113198C47.2267 1.69487 41.0651 3.69654 34.5121 7.15042C16.969 16.3986 4.72194 32.8716 0.872266 52.3976C-0.290755 58.2967 -0.290755 69.7919 0.872266 75.691C4.72194 95.217 16.969 111.69 34.5121 120.938C39.785 123.718 43.9247 125.275 50.1262 126.812C54.3223 127.852 56.1082 128 64.5 128C72.8918 128 74.6777 127.852 78.8739 126.812C85.0753 125.275 89.215 123.718 94.4879 120.938C112.031 111.69 124.278 95.217 128.128 75.691C129.291 69.7919 129.291 58.2967 128.128 52.3976C123.803 30.461 108.611 12.2095 87.8689 4.03324C80.7878 1.24174 75.2128 0.226603 66.013 0.0524789C61.2974 -0.0368412 56.8718 -0.00924118 56.1783 0.113198ZM74.8391 11.3505C96.6248 15.8882 113.353 32.6463 117.428 54.0139C119.051 62.5294 118.201 73.8765 115.347 81.7829C109.641 97.587 97.0601 109.876 81.3956 114.943C75.1134 116.976 71.8882 117.455 64.5 117.455C57.1118 117.455 53.8866 116.976 47.6044 114.943C29.2462 109.004 15.1932 93.0648 11.5725 74.0747C10.5658 68.7943 10.5658 59.2943 11.5725 54.0139C15.8528 31.5639 33.8141 14.4982 56.9767 10.8733C60.6715 10.2952 71.111 10.5742 74.8391 11.3505ZM91.5929 41.3239C90.9529 41.4428 82.782 48.7701 73.1843 57.832L55.9261 74.1269L47.3522 65.3209L38.7784 56.5143L36.3439 56.5158C33.042 56.5178 30.961 58.4533 30.961 61.5218C30.961 63.4868 31.2944 63.9449 37.4726 70.4673C46.8197 80.3347 52.7074 86 54.1866 86.549C56.8743 87.546 58.0953 86.7381 67.9941 77.4102C91.5203 55.2418 97.9295 48.9477 98.1509 47.7956C98.851 44.1515 95.2908 40.6384 91.5929 41.3239Z" fill="#F2F5FC"/>
</g>
<defs>
<clipPath id="clip0_244_1990">
<rect width="107" height="98" rx="10" fill="white"/>
</clipPath>
</defs>
</svg>
