<svg width="12" height="16" viewBox="0 0 12 16" fill="none" xmlns="http://www.w3.org/2000/svg">
<path fill-rule="evenodd" clip-rule="evenodd" d="M0.949592 0.0783379C0.622345 0.197647 0.427438 0.35248 0.207036 0.66839L0.0222899 0.933229L0.00400021 7.8735C-0.00800829 12.4542 0.00707932 14.8881 0.0484625 15.0323C0.133815 15.3296 0.442772 15.6938 0.751853 15.8613L1.0076 16H5.99575H10.9839L11.2379 15.8623C11.5251 15.7065 11.7942 15.4094 11.917 15.1123C11.9845 14.949 12 13.8931 12 9.46416V4.01691L10.0302 2.01706L8.06041 0.0172163L4.62641 0.0035434C1.79314 -0.0076945 1.14986 0.00535406 0.949592 0.0783379ZM7.38135 2.29801C7.38135 3.25866 7.40364 3.66504 7.46436 3.812C7.58715 4.10906 7.85621 4.40618 8.14349 4.56195C8.37904 4.68968 8.49444 4.70111 9.73686 4.71965L11.0763 4.73963V9.72145C11.0763 14.6669 11.0753 14.7045 10.9486 14.8678L10.821 15.0323H5.99575H1.17049L1.04289 14.8678C0.915537 14.7037 0.91523 14.6869 0.91523 8.00861C0.91523 1.3303 0.915537 1.31351 1.04289 1.14943L1.17049 0.984924H4.27595H7.38135V2.29801ZM9.4606 3.71873L8.5822 3.73671L8.44364 3.57476C8.31394 3.42323 8.30508 3.35606 8.30508 2.52739V1.6419L9.32204 2.67129L10.3389 3.70075L9.4606 3.71873ZM3.01007 6.68322C2.81393 6.78505 2.71958 7.04764 2.79804 7.27371C2.91215 7.60273 2.92705 7.60417 6.07821 7.58725L8.99344 7.57158L9.11112 7.42418C9.26145 7.23594 9.26145 6.97073 9.11112 6.78249L8.99344 6.63509L6.07821 6.61942C3.8155 6.6073 3.12874 6.62154 3.01007 6.68322ZM3.01007 8.55621C2.81393 8.65803 2.71958 8.92063 2.79804 9.1467C2.91215 9.47572 2.92705 9.47715 6.07821 9.46023L8.99344 9.44456L9.11112 9.29716C9.26145 9.10892 9.26145 8.84371 9.11112 8.65547L8.99344 8.50807L6.07821 8.4924C3.8155 8.48029 3.12874 8.49452 3.01007 8.55621ZM3.01007 10.4292C2.81393 10.531 2.71958 10.7936 2.79804 11.0197C2.91215 11.3487 2.92705 11.3501 6.07821 11.3332L8.99344 11.3175L9.11112 11.1701C9.26145 10.9819 9.26145 10.7167 9.11112 10.5285L8.99344 10.3811L6.07821 10.3654C3.8155 10.3533 3.12874 10.3675 3.01007 10.4292ZM3.01007 12.3018C2.81387 12.4041 2.71965 12.6667 2.79804 12.8927C2.90895 13.2124 2.99553 13.2239 5.15448 13.2066L7.14604 13.1905L7.26366 13.0431C7.32839 12.9621 7.38135 12.8177 7.38135 12.7223C7.38135 12.6269 7.32839 12.4825 7.26366 12.4014L7.14604 12.254L5.15448 12.238C3.63328 12.2258 3.12689 12.2409 3.01007 12.3018Z" fill="#92D6ED"/>
</svg>
