<svg width="17" height="17" viewBox="0 0 17 17" fill="none" xmlns="http://www.w3.org/2000/svg">
<path fill-rule="evenodd" clip-rule="evenodd" d="M13.0291 0.0498184C12.1561 0.181031 11.3078 0.521456 10.5095 1.06109C10.2907 1.20893 9.64918 1.78382 9.08392 2.33849L8.05618 3.34698L7.89963 3.2202C7.62082 2.99436 7.4522 3.0546 6.92029 3.57004L6.4285 4.04665L6.07993 3.70258C5.50413 3.13432 5.50393 3.13438 4.08704 4.54439C2.71344 5.91126 2.73857 5.8556 3.17042 6.57614L3.44539 7.03512L1.98792 8.49709C0.790766 9.69788 0.530448 9.99185 0.530448 10.1428C0.530448 10.2758 0.634349 10.4355 0.905607 10.7197L1.28077 11.1128L0.849115 11.5597C0.0631896 12.3734 0 12.6243 0 14.9308V16.6225L0.193812 16.8163C0.438946 17.0613 0.621951 17.0613 0.867084 16.8163L1.0609 16.6225V14.8412C1.0609 13.0793 1.06269 13.0562 1.2248 12.7311C1.31498 12.5503 1.52424 12.2695 1.68988 12.107L1.99097 11.8116L2.80236 12.6187C3.83945 13.6504 4.11608 13.7959 5.04065 13.7959C6.09883 13.7959 6.12754 13.7755 8.73582 11.1624C9.99537 9.90053 10.9405 8.90259 10.9405 8.83446C10.9405 8.49477 10.4618 5.87905 10.3653 5.69112L10.2529 5.47236L11.1437 4.57594C12.5461 3.16487 12.6969 3.08813 14.1788 3.03233C15.5269 2.98157 15.4493 3.07501 15.4493 1.50297C15.4493 -0.0584653 15.5055 0.0157561 14.3116 0.000978059C13.825 -0.00498617 13.2479 0.0169489 13.0291 0.0498184ZM14.4547 1.50297V1.96685L14.0071 1.96798C13.3733 1.96964 12.7113 2.12484 12.134 2.40715C11.7093 2.61477 11.481 2.80383 10.5704 3.70145L9.50411 4.75261L9.15845 4.4035L8.8128 4.05433L9.82688 3.05864C10.3846 2.51106 11.0146 1.94903 11.2265 1.80973C12.0073 1.29687 12.8407 1.05294 13.8414 1.04432L14.4547 1.03908V1.50297ZM8.56806 5.26374L9.47599 6.17495L9.6763 7.36779L9.87661 8.56064L9.27097 9.16872L8.66527 9.77688L7.3483 9.11809C6.39734 8.64241 5.98889 8.46998 5.87856 8.49768C5.79455 8.51875 5.10185 9.16018 4.3392 9.92307L2.95254 11.3101L2.37097 10.7315L1.78947 10.153L3.1933 8.74878C4.37275 7.56905 4.59719 7.31391 4.59719 7.15308C4.59719 7.04645 4.47513 6.75812 4.32163 6.50205L4.04599 6.04241L4.77131 5.31722L5.49664 4.59197L5.86072 4.93618C6.3791 5.42617 6.50986 5.41384 7.11914 4.81755C7.37926 4.56301 7.60736 4.35427 7.62605 4.35367C7.64482 4.35307 8.06871 4.76262 8.56806 5.26374ZM14.7963 5.20622C14.5481 5.47567 13.8133 6.72452 13.5701 7.28993C13.1303 8.31206 13.4087 9.24036 14.3146 9.77257C14.5827 9.93016 14.69 9.95222 15.1841 9.95169C15.799 9.9511 15.9888 9.88291 16.4141 9.50968C17.0247 8.97389 17.1674 8.14851 16.7981 7.28993C16.5549 6.72452 15.82 5.47567 15.5719 5.20622C15.4486 5.07223 15.3329 5.01524 15.1841 5.01524C15.0353 5.01524 14.9196 5.07223 14.7963 5.20622ZM15.6316 7.25772C16.0398 8.04818 16.077 8.33559 15.8118 8.65056C15.5853 8.91962 15.2558 9.02532 14.9542 8.92585C14.6319 8.81955 14.3884 8.5104 14.3885 8.20762C14.3885 7.84115 15.0523 6.50656 15.2085 6.55864C15.2497 6.57236 15.4401 6.88694 15.6316 7.25772ZM7.23869 10.1899L7.91064 10.5269L6.85624 11.5838C5.89659 12.5456 5.76948 12.65 5.44233 12.7458C4.8963 12.9056 4.4557 12.7883 4.01516 12.3657L3.67998 12.0443L4.55854 11.1643L5.43709 10.2842V10.602C5.43709 10.9487 5.56951 11.2711 5.73845 11.3359C5.95401 11.4186 6.17621 11.3734 6.33521 11.2144C6.48407 11.0657 6.49799 11.0004 6.49799 10.4523C6.49799 10.1226 6.51344 9.85289 6.53234 9.85289C6.55123 9.85289 6.8691 10.0046 7.23869 10.1899Z" fill="#92D6ED"/>
</svg>
