<svg width="17" height="13" viewBox="0 0 17 13" fill="none" xmlns="http://www.w3.org/2000/svg">
<path fill-rule="evenodd" clip-rule="evenodd" d="M4.3367 0.0408991C3.72397 0.197449 3.14778 0.644292 2.88536 1.16644C2.80243 1.33151 2.59578 1.95745 2.42628 2.55741C2.25671 3.15736 2.1028 3.69167 2.08416 3.74469C2.06229 3.8071 1.96105 3.6998 1.79709 3.44045C1.51518 2.99433 1.43806 2.95632 0.812636 2.955C0.438005 2.95414 0.374432 2.97417 0.201358 3.14731C-0.0429549 3.39172 -0.0429549 3.57419 0.201358 3.8186C0.355334 3.97257 0.45261 4.01184 0.680468 4.01191C0.956038 4.01198 0.973617 4.02454 1.16467 4.35846C1.2737 4.54899 1.37197 4.72491 1.38307 4.74944C1.39418 4.7739 1.34237 4.8133 1.26796 4.83691C0.936742 4.94209 0.480101 5.39812 0.261561 5.84192L0.0412365 6.28943L0.0206185 8.45713L0 10.6249L0.197261 10.8222C0.381041 11.0061 0.428291 11.0196 0.888897 11.0196H1.38321L1.40607 11.6364C1.42689 12.1964 1.44658 12.2763 1.61959 12.503C1.93118 12.9114 2.2152 13 3.21327 13C4.21134 13 4.49537 12.9114 4.80696 12.503C4.97997 12.2763 4.99966 12.1964 5.02047 11.6364L5.04334 11.0196H8.5H11.9567L11.9795 11.6364C12.0003 12.1964 12.02 12.2763 12.193 12.503C12.5046 12.9114 12.7887 13 13.7867 13C14.7848 13 15.0688 12.9114 15.3804 12.503C15.5534 12.2763 15.5731 12.1964 15.5939 11.6364L15.6168 11.0196H16.1111C16.5717 11.0196 16.619 11.0061 16.8027 10.8222L17 10.6249L16.9794 8.45878C16.9596 6.38099 16.9528 6.27964 16.8115 5.97335C16.5993 5.51348 16.2974 5.15979 15.9447 4.95782C15.7755 4.8609 15.6287 4.77608 15.6184 4.76921C15.6081 4.7624 15.6974 4.58978 15.8167 4.38563C16.0268 4.02599 16.0424 4.01442 16.3195 4.01317C16.5465 4.01211 16.6453 3.97198 16.7986 3.8186C17.043 3.57419 17.043 3.39172 16.7986 3.14731C16.6256 2.97417 16.562 2.95414 16.1874 2.955C15.5619 2.95632 15.4848 2.99433 15.2029 3.44045C15.039 3.6998 14.9377 3.8071 14.9158 3.74469C14.8972 3.69167 14.7433 3.15736 14.5737 2.55741C14.4042 1.95745 14.1976 1.33151 14.1146 1.16644C13.9281 0.795421 13.4484 0.344546 13.0384 0.155007C12.7331 0.0138602 12.6801 0.0120089 8.63217 0.0011667C6.3787 -0.00484939 4.44574 0.0130004 4.3367 0.0408991ZM12.7546 1.17258C12.8873 1.24729 13.0594 1.40344 13.1369 1.51967C13.2144 1.63589 13.4457 2.32602 13.651 3.05324C13.8562 3.78046 14.0396 4.42748 14.0586 4.49115C14.0889 4.59309 14.0414 4.60684 13.659 4.60684C13.3403 4.60684 13.225 4.5833 13.225 4.51825C13.225 4.28779 12.7951 3.59792 12.4614 3.29282C11.974 2.84717 11.4997 2.66708 10.8129 2.66708C10.1262 2.66708 9.65191 2.84717 9.16448 3.29282C8.83075 3.59792 8.40087 4.28779 8.40087 4.51825C8.40087 4.59091 7.9061 4.60684 5.65396 4.60684C3.06875 4.60684 2.90902 4.60003 2.9414 4.49115C2.96037 4.42748 3.14375 3.78046 3.34901 3.05324C3.55427 2.32602 3.78523 1.63642 3.86235 1.52079C3.93941 1.40516 4.10746 1.24967 4.23566 1.17523C4.46365 1.04294 4.55947 1.03983 8.49101 1.03838C12.4269 1.03686 12.5183 1.03977 12.7546 1.17258ZM11.4077 3.80465C11.6651 3.92193 12.1677 4.40877 12.1677 4.54093C12.1677 4.58258 11.6695 4.60684 10.8129 4.60684C9.95643 4.60684 9.45822 4.58258 9.45822 4.54093C9.45822 4.40877 9.96079 3.92193 10.2182 3.80465C10.3636 3.73841 10.6312 3.6842 10.8129 3.6842C10.9947 3.6842 11.2623 3.73841 11.4077 3.80465ZM15.3169 5.7731C15.4426 5.83273 15.6255 5.98657 15.7234 6.11489L15.9014 6.3482L15.9209 8.15501L15.9404 9.96181H13.4593H10.9782V8.94443C10.9782 8.04123 10.9639 7.90954 10.8518 7.77097L10.7255 7.61488H8.5H6.27449L6.1482 7.77097C6.03606 7.90954 6.02185 8.04123 6.02185 8.94443V9.96181H3.54072H1.05959L1.07909 8.16029C1.09819 6.39474 1.10169 6.35448 1.25256 6.14279C1.33728 6.02399 1.5157 5.86909 1.64906 5.79862C1.88426 5.67433 2.09196 5.67036 8.49002 5.66752C14.4737 5.66488 15.1097 5.67473 15.3169 5.7731ZM2.8508 6.50468C1.84507 7.0333 1.78513 8.47247 2.74408 9.06562C3.7288 9.67463 4.94606 9.04446 5.01717 7.88884C5.08841 6.73104 3.88409 5.96152 2.8508 6.50468ZM12.7634 6.50468C11.7577 7.0333 11.6977 8.47247 12.6567 9.06562C13.6414 9.67463 14.8587 9.04446 14.9298 7.88884C15.001 6.73104 13.7967 5.96152 12.7634 6.50468ZM3.88376 7.4576C4.12094 7.65455 4.00708 8.15626 3.70236 8.25675C3.32152 8.38236 2.97451 8.03501 3.10067 7.65448C3.20032 7.35394 3.62907 7.24618 3.88376 7.4576ZM13.7964 7.4576C14.0336 7.65455 13.9197 8.15626 13.615 8.25675C13.2341 8.38236 12.8871 8.03501 13.0133 7.65448C13.1129 7.35394 13.5417 7.24618 13.7964 7.4576ZM9.98689 9.3007V9.96181H8.5H7.01311V9.3007V8.6396H8.5H9.98689V9.3007ZM4.02584 11.4658L4.00628 11.9121H3.21327H2.42026L2.4007 11.4658L2.38121 11.0196H3.21327H4.04534L4.02584 11.4658ZM14.5993 11.4658L14.5797 11.9121H13.7867H12.9937L12.9742 11.4658L12.9547 11.0196H13.7867H14.6188L14.5993 11.4658Z" fill="#92D6ED"/>
</svg>
