<svg width="12" height="17" viewBox="0 0 12 17" fill="none" xmlns="http://www.w3.org/2000/svg">
<path fill-rule="evenodd" clip-rule="evenodd" d="M5.58729 0.0721688C5.24106 0.211531 5.06137 0.359235 4.85731 0.672319C4.67339 0.95442 4.66849 0.956935 4.22578 0.99315C3.61004 1.04353 3.15747 1.31868 2.93571 1.77755C2.8519 1.95101 2.84969 1.9514 1.94627 1.98087C1.18133 2.00576 1.0028 2.03178 0.795918 2.14856C0.511286 2.30924 0.275326 2.56744 0.114122 2.89476C0.00508153 3.11622 0 3.40785 0 9.48218V15.8379L0.135674 16.1122C0.317572 16.48 0.712592 16.834 1.04088 16.9234C1.416 17.0255 10.584 17.0255 10.9591 16.9234C11.2874 16.834 11.6824 16.48 11.8643 16.1122L12 15.8379V9.48218C12 3.40785 11.9949 3.11622 11.8859 2.89476C11.7247 2.56744 11.4887 2.30924 11.2041 2.14856C10.9972 2.03178 10.8187 2.00576 10.0537 1.98087C9.15031 1.9514 9.1481 1.95101 9.06429 1.77755C8.84492 1.32365 8.40349 1.0522 7.78004 0.98792C7.338 0.94237 7.32857 0.937471 7.12212 0.643785C6.747 0.110303 6.09551 -0.132405 5.58729 0.0721688ZM6.30888 1.20355C6.39153 1.29293 6.45918 1.44321 6.45918 1.53756C6.45918 1.6319 6.52684 1.78218 6.60949 1.87156C6.74988 2.02344 6.8018 2.03409 7.40094 2.03409C8.02071 2.03409 8.04637 2.03992 8.169 2.20855C8.25337 2.32447 8.29592 2.47985 8.29592 2.67198V2.96097H6H3.70408V2.67198C3.70408 2.47985 3.74663 2.32447 3.831 2.20855C3.95363 2.03992 3.97929 2.03409 4.59906 2.03409C5.1982 2.03409 5.25012 2.02344 5.39051 1.87156C5.47316 1.78218 5.54082 1.6319 5.54082 1.53756C5.54082 1.31683 5.79588 1.04102 6 1.04102C6.08724 1.04102 6.22622 1.11417 6.30888 1.20355ZM2.78571 3.38647C2.78571 3.69585 2.80818 3.7649 2.94704 3.88301C3.10506 4.01747 3.16733 4.02025 6 4.02025C8.83267 4.02025 8.89494 4.01747 9.05296 3.88301C9.19182 3.7649 9.21429 3.69585 9.21429 3.38647V3.02717H9.99098C10.7041 3.02717 10.7792 3.03896 10.9093 3.1711L11.051 3.3151V9.47291V15.6307L10.9179 15.784L10.7848 15.9372H6.00857H1.23239L1.09065 15.7933L0.94898 15.6493V9.49145V3.33364L1.08208 3.18037C1.20784 3.03571 1.25884 3.02717 2.00045 3.02717H2.78571V3.38647ZM8.47212 6.1169L7.86955 6.75711L7.50563 6.38173C7.08527 5.94815 6.82996 5.88605 6.59229 6.15961C6.33067 6.46077 6.40151 6.64191 7.05722 7.34832C7.88645 8.24163 7.83576 8.24818 8.88814 7.11025C9.59718 6.34346 9.70408 6.19999 9.70408 6.01482C9.70408 5.7486 9.46916 5.47677 9.23908 5.47677C9.11357 5.47677 8.93216 5.62818 8.47212 6.1169ZM2.42284 6.18086C2.25447 6.41225 2.26255 6.6384 2.44622 6.83695C2.59427 6.9971 2.61208 6.99949 3.66569 6.99949C4.25376 6.99949 4.77949 6.98095 4.83398 6.95837C4.98349 6.89634 5.12069 6.5624 5.07594 6.36954C4.99916 6.03878 4.87341 6.00641 3.66429 6.00641H2.54969L2.42284 6.18086ZM8.48265 9.08495C8.15706 9.43087 7.8638 9.7139 7.83098 9.7139C7.79816 9.7139 7.62165 9.55004 7.43878 9.34977C7.05631 8.93102 6.82335 8.87296 6.59229 9.13884C6.33067 9.44001 6.40151 9.62115 7.05722 10.3276C7.8878 11.2223 7.83918 11.2285 8.89035 10.0919C9.57263 9.35408 9.70378 9.18029 9.70212 9.01603C9.69918 8.72036 9.45233 8.456 9.17914 8.456C9.12165 8.456 8.80831 8.73903 8.48265 9.08495ZM2.57143 9.52905C2.26157 9.72118 2.20567 10.0858 2.44622 10.3458C2.59439 10.5061 2.61153 10.5084 3.67537 10.5084H4.75433L4.93329 10.3148C5.03173 10.2084 5.11225 10.0572 5.11225 9.97872C5.11225 9.90027 5.03173 9.74906 4.93329 9.6426L4.75433 9.44908L3.7241 9.45107C3.06459 9.45239 2.6498 9.48046 2.57143 9.52905ZM6.60949 12.1274C6.35596 12.4015 6.40433 12.6408 6.80522 13.0953L7.15127 13.4876L6.80522 13.8799C6.36355 14.3806 6.3352 14.7047 6.71455 14.9169C6.96067 15.0545 7.10559 14.9912 7.50214 14.5726L7.84108 14.215L8.11439 14.5187C8.26476 14.6856 8.4649 14.8662 8.55918 14.9197C8.87216 15.0976 9.21429 14.8725 9.21429 14.4889C9.21429 14.2905 9.15869 14.192 8.86622 13.8724L8.51816 13.4921L8.86622 13.0975C9.26822 12.6418 9.32578 12.366 9.07261 12.1088C8.83004 11.8624 8.63333 11.9194 8.21412 12.3575L7.83839 12.7503L7.4602 12.3575C7.03292 11.9138 6.85212 11.865 6.60949 12.1274ZM2.44622 13.1205C2.25594 13.3263 2.25502 13.5612 2.44353 13.7984L2.59114 13.9841L3.6221 14.002C4.74931 14.0215 4.89771 13.9865 5.03951 13.6667C5.13343 13.4549 5.09271 13.2699 4.91222 13.0881C4.79376 12.9687 4.69212 12.958 3.68975 12.958C2.61061 12.958 2.59451 12.9601 2.44622 13.1205Z" fill="#92D6ED"/>
</svg>
