<svg width="362" height="239" viewBox="0 0 362 239" fill="none" xmlns="http://www.w3.org/2000/svg">
<rect x="0.5" y="0.5" width="361" height="238" stroke="#D6DFEE"/>
<path d="M1.34082 0.79895L181 119.5M360.659 238.2L181 119.5M181 119.5L1.34082 238.2L360.659 0.79895" stroke="#D6DFEE"/>
<rect x="88.4888" y="85.0129" width="185.022" height="68.9732" fill="#EDF4FF"/>
<path d="M163.215 119.491V111.091H166.983C167.951 111.091 168.683 111.339 169.179 111.835C169.555 112.211 169.743 112.683 169.743 113.251C169.743 114.083 169.343 114.707 168.543 115.123C169.655 115.499 170.211 116.187 170.211 117.187C170.211 117.923 169.931 118.491 169.371 118.891C168.811 119.291 168.055 119.491 167.103 119.491H163.215ZM164.667 114.631H166.683C167.171 114.631 167.555 114.535 167.835 114.343C168.123 114.143 168.267 113.851 168.267 113.467C168.267 113.131 168.139 112.871 167.883 112.687C167.627 112.495 167.263 112.399 166.791 112.399H164.667V114.631ZM164.667 118.183H167.115C167.627 118.183 168.023 118.083 168.303 117.883C168.591 117.683 168.735 117.391 168.735 117.007C168.735 116.255 168.159 115.879 167.007 115.879H164.667V118.183ZM171.707 119.491V113.155H173.123V117.403C174.451 115.515 175.451 114.099 176.123 113.155H177.491V119.491H176.087V115.267L173.075 119.491H171.707ZM178.581 121.015V118.243H179.265C179.737 117.299 179.973 115.863 179.973 113.935V113.155H184.881V118.243H185.781L185.589 121.015H184.377V119.491H179.937L179.793 121.015H178.581ZM180.753 118.243H183.429V114.403H181.341V115.243C181.341 116.419 181.145 117.419 180.753 118.243ZM189.893 119.635C188.965 119.635 188.189 119.327 187.565 118.711C186.949 118.095 186.641 117.299 186.641 116.323C186.641 115.403 186.933 114.623 187.517 113.983C188.101 113.343 188.841 113.023 189.737 113.023C190.697 113.023 191.441 113.351 191.969 114.007C192.505 114.655 192.773 115.463 192.773 116.431C192.773 116.607 192.765 116.743 192.749 116.839H188.093C188.173 117.343 188.377 117.739 188.705 118.027C189.033 118.307 189.437 118.447 189.917 118.447C190.541 118.447 191.113 118.195 191.633 117.691L192.485 118.447C191.829 119.239 190.965 119.635 189.893 119.635ZM188.081 115.879H191.333C191.285 115.391 191.121 114.991 190.841 114.679C190.561 114.367 190.189 114.211 189.725 114.211C189.285 114.211 188.917 114.367 188.621 114.679C188.325 114.983 188.145 115.383 188.081 115.879ZM197.243 119.635C196.283 119.635 195.483 119.315 194.843 118.675C194.203 118.035 193.883 117.255 193.883 116.335C193.883 115.415 194.207 114.635 194.855 113.995C195.503 113.347 196.307 113.023 197.267 113.023C198.227 113.023 199.027 113.343 199.667 113.983C200.315 114.623 200.639 115.407 200.639 116.335C200.639 117.247 200.315 118.027 199.667 118.675C199.019 119.315 198.211 119.635 197.243 119.635ZM197.267 118.375C197.843 118.375 198.307 118.179 198.659 117.787C199.011 117.395 199.187 116.911 199.187 116.335C199.187 115.767 199.003 115.287 198.635 114.895C198.267 114.495 197.803 114.295 197.243 114.295C196.675 114.295 196.215 114.491 195.863 114.883C195.511 115.275 195.335 115.759 195.335 116.335C195.335 116.895 195.519 117.375 195.887 117.775C196.255 118.175 196.715 118.375 197.267 118.375Z" fill="#A9B8CE"/>
</svg>
