<svg width="114" height="17" viewBox="0 0 114 17" fill="none" xmlns="http://www.w3.org/2000/svg">
<path d="M92.1059 7.50757L87.7504 2.57629H85.2041V13.9939H87.8627V6.70925L91.8391 11.0252H92.3306L96.2385 6.70925V13.9939H98.8971V2.57629H96.3507L92.1059 7.50757Z" fill="black"/>
<path d="M111.565 2.57629L104.975 9.99732V2.57629H102.316V13.9939H104.752L111.342 6.57285V13.9939H114V2.57629H111.565Z" fill="black"/>
<path d="M70.884 6.75413C70.884 8.57198 71.8603 10.004 73.3587 10.6044L70.5488 13.9939H73.803L76.359 10.9104H79.1249V13.9939H81.7833V2.57629H75.015C72.4915 2.57629 70.8839 4.33425 70.8839 6.75415L70.884 6.75413ZM79.1265 5.09097V8.46719H75.508C74.3008 8.46719 73.6532 7.78196 73.6532 6.77742C73.6532 5.77287 74.3234 5.08762 75.508 5.08762L79.1265 5.09097Z" fill="black"/>
<path d="M58.5295 4.8598C58.3668 8.78653 57.5534 11.3212 55.9606 11.3212H55.5618V14.0621L55.9865 14.0854C59.1802 14.2667 60.9457 11.4127 61.2353 5.17914H65.4362V13.9939H68.0899V2.57629H58.6189L58.5295 4.85981L58.5295 4.8598Z" fill="black"/>
<path d="M48.5212 2.41675C44.9256 2.41675 42.3386 4.95141 42.3386 8.2844C42.3386 11.7321 45.1533 14.177 48.5212 14.177C52.029 14.177 54.7543 11.5958 54.7543 8.2844C54.7543 4.97303 52.029 2.41675 48.5212 2.41675ZM48.5212 11.4361C46.489 11.4361 45.1046 10.0889 45.1046 8.2844C45.1046 6.43496 46.4907 5.12439 48.5212 5.12439C50.5517 5.12439 51.9835 6.49484 51.9835 8.2844C51.9835 10.074 50.5322 11.4361 48.5212 11.4361Z" fill="black"/>
<path d="M39.518 2.5979H30.1351L30.0455 4.88142C29.9122 8.17115 29.0693 11.2996 27.4765 11.3445L26.7395 11.3678V16.6899H29.4207V13.9956H38.7353V16.6899H41.4396V11.3445H39.518V2.5979ZM36.8594 11.3445H31.1861C32.146 9.86095 32.6601 7.71381 32.7497 5.20241H36.8594V11.3445Z" fill="black"/>
<path d="M20.6242 0H18.0461V14.0549H20.6242V0Z" fill="black"/>
<path d="M14.6087 0.87854H12.0308V14.9334H14.6087V0.87854Z" fill="black"/>
<path d="M8.59312 1.75671H6.01514V15.8116H8.59312V1.75671Z" fill="black"/>
<path d="M2.57798 2.63525H0V16.6901H2.57798V2.63525Z" fill="black"/>
</svg>
