<svg width="32" height="28" viewBox="0 0 32 28" fill="none" xmlns="http://www.w3.org/2000/svg">
<path fill-rule="evenodd" clip-rule="evenodd" d="M21.7133 0.0784287C21.8503 0.139088 22.1645 0.402728 22.4116 0.664144C23.1762 1.47335 28.398 7.99615 28.5956 8.38901C28.8232 8.84155 28.7527 9.66916 28.4471 10.1317C28.3278 10.3121 27.4648 11 26.5292 11.6602C25.5935 12.3204 24.5312 13.076 24.1686 13.3394L23.5092 13.8181L24.0968 14.6442C24.4199 15.0986 24.8522 15.7064 25.0573 15.9949C25.5883 16.7418 25.5591 17.1967 24.9477 17.7057L24.4652 18.1075L24.7712 18.3577C25.7854 19.187 27.1578 19.609 28.841 19.609H29.9985V18.4876C29.9985 17.4129 30.0137 17.3512 30.3626 17.0051C30.8244 16.5474 31.1671 16.5484 31.6317 17.0091L32 17.3743L31.9647 22.4559L31.9296 27.5377L31.6355 27.7738C31.2598 28.0754 30.7306 28.0754 30.3549 27.7738C30.0925 27.5632 30.0562 27.4179 30.0178 26.4288L29.9747 25.3199L28.6473 25.2382C27.9172 25.1933 27.0114 25.1 26.6346 25.0309C24.3748 24.6172 22.0519 23.4204 20.3931 21.8154L19.8205 21.2613L19.3964 21.5564C18.2537 22.3515 18.0206 22.262 16.8448 20.5759L15.9009 19.2222L15.5678 19.4387C15.3845 19.5576 14.5569 20.1383 13.7285 20.7289C11.4374 22.3624 11.5475 22.338 10.4215 21.4646C9.98504 21.1262 9.58025 20.8483 9.52182 20.8469C9.46326 20.8456 8.64745 21.3966 7.70879 22.0713C5.68496 23.5263 5.44226 23.6529 5.03249 23.4677C4.65473 23.297 0.132383 17.7533 0.0251122 17.3294C-0.091629 16.8685 0.175243 16.5506 1.32209 15.7843L2.33139 15.1097L1.89944 14.7175C1.44057 14.3006 1.33492 13.798 1.62721 13.422C1.71068 13.3145 5.92143 10.2608 10.9845 6.63582C19.9984 0.182204 20.2032 0.0442078 20.8271 0.00652731C21.1774 -0.014722 21.5762 0.0176458 21.7133 0.0784287ZM12.3772 8.00035C5.61631 12.8435 4.09296 13.9857 4.22851 14.11C4.91201 14.7368 11.3829 19.769 11.5199 19.7801C11.6817 19.7933 26.7398 9.24343 26.753 9.10741C26.7564 9.07331 25.4655 7.4428 23.8844 5.48416C22.1574 3.34477 20.9464 1.94701 20.8512 1.98333C20.764 2.01644 16.9507 4.72412 12.3772 8.00035ZM8.90361 12.1946C9.45342 12.4197 9.61152 13.1959 9.2081 13.69C8.6857 14.3297 7.57237 13.9017 7.57237 13.0613C7.57237 12.4028 8.28253 11.9405 8.90361 12.1946ZM19.6264 16.5547C18.4786 17.3647 17.5395 18.0598 17.5395 18.0993C17.5395 18.1873 18.5492 19.7326 18.6068 19.7326C18.6293 19.7326 19.6602 19.0334 20.8975 18.1789L23.1469 16.6252L22.5547 15.7829C22.2289 15.3196 21.9064 14.9723 21.8379 15.0111C21.7693 15.0499 20.7742 15.7445 19.6264 16.5547ZM3.14022 16.8602C2.77007 17.1151 2.46644 17.363 2.46569 17.4113C2.46432 17.4921 5.01666 20.6887 5.3913 21.0752C5.52872 21.2172 5.7328 21.1182 6.66411 20.4575C7.2741 20.0249 7.79812 19.6258 7.82852 19.5708C7.88434 19.4699 4.11102 16.4135 3.91741 16.4027C3.8601 16.3995 3.51038 16.6055 3.14022 16.8602ZM22.0703 19.698L21.3724 20.1576L21.9789 20.689C23.914 22.3848 26.4048 23.3118 29.0329 23.3143L29.9985 23.3153V22.469V21.6228L28.4977 21.5386C26.2308 21.4116 24.7349 20.853 23.2083 19.5631C23.0028 19.3894 22.8197 19.2453 22.8016 19.2428C22.7834 19.2404 22.4543 19.4452 22.0703 19.698Z" fill="#FF931E"/>
</svg>
