<svg width="26" height="26" viewBox="0 0 26 26" fill="none" xmlns="http://www.w3.org/2000/svg">
<path fill-rule="evenodd" clip-rule="evenodd" d="M0.732038 0.20133C0.550597 0.311908 0.311779 0.550667 0.201174 0.732063C0.0034405 1.05611 0 1.26563 0 12.9997C0 24.7339 0.0034405 24.9434 0.201174 25.2674C0.311779 25.4488 0.550597 25.6876 0.732038 25.7982C1.05475 25.9949 1.26017 25.9993 10.2747 25.9996L19.4877 26L20.3942 25.4815C21.9479 24.5928 22.3856 24.2705 23.3245 23.3237C24.2785 22.3616 24.8674 21.48 25.3302 20.3215C25.8447 19.0333 25.9226 18.5133 25.978 15.9961C26.0471 12.8615 26.0144 12.7535 24.946 12.5984C24.2605 12.4988 23.7853 12.237 23.3461 11.7171C22.5198 10.7391 22.7103 10.8246 21.3585 10.8246H20.1442L20.1153 5.8746C20.087 1.05085 20.081 0.917304 19.8768 0.639089C19.7615 0.482074 19.511 0.273969 19.3202 0.176745C18.9976 0.012244 18.3442 -0.000199978 10.0175 2.361e-06C1.25946 0.0002047 1.05454 0.00465671 0.732038 0.20133ZM18.5178 6.22141V10.8246H17.3607C16.7243 10.8246 16.0885 10.8684 15.9477 10.9218C15.807 10.9754 15.5778 11.1997 15.4383 11.4207C14.9442 12.2031 14.362 12.5738 13.4356 12.6955C13.0829 12.742 12.9011 12.8298 12.7417 13.0308C12.531 13.2964 12.5268 13.3644 12.5779 15.7313C12.6347 18.3618 12.7164 18.9205 13.2442 20.2889C13.7716 21.6563 14.9641 23.2581 16.0892 24.1107L16.4433 24.3791L9.03087 24.3802L1.6184 24.3813V12.9997V1.61821H10.0681H18.5178V6.22141ZM3.88403 4.99139C3.53532 5.29126 3.51174 5.78173 3.8306 6.10061L4.05262 6.32258L9.93322 6.3503C16.3394 6.38045 16.147 6.39633 16.4116 5.81592C16.558 5.49451 16.3668 5.02356 16.0269 4.86877C15.8498 4.78804 14.069 4.75445 9.96782 4.75445H4.15958L3.88403 4.99139ZM3.88403 8.02647C3.53542 8.32623 3.51174 8.8168 3.8305 9.13569C4.04807 9.3533 4.11374 9.35826 7.19814 9.38709C10.6157 9.41917 10.6932 9.40814 10.9471 8.851C11.0935 8.52958 10.9024 8.05864 10.5624 7.90385C10.3935 7.82686 9.30622 7.78953 7.23558 7.78953H4.15958L3.88403 8.02647ZM3.88403 11.0615C3.53542 11.3613 3.51174 11.8519 3.8305 12.1708C4.04807 12.3884 4.11374 12.3933 7.19814 12.4222C10.6157 12.4542 10.6932 12.4432 10.9471 11.8861C11.0935 11.5647 10.9024 11.0937 10.5624 10.9389C10.3935 10.8619 9.30622 10.8246 7.23558 10.8246H4.15958L3.88403 11.0615ZM22.3742 13.0021C22.9431 13.5445 23.8398 14.059 24.2199 14.061C24.3972 14.0619 24.4049 14.176 24.3679 16.2625C24.3296 18.4169 24.3222 18.4814 24.0154 19.3492C23.5732 20.6001 23.148 21.2686 22.1608 22.2649C21.5428 22.8886 21.0218 23.2962 20.31 23.7123L19.3192 24.2916L18.2397 23.6535C16.0441 22.3559 14.7432 20.5985 14.3126 18.3488C14.2214 17.8724 14.1665 16.9478 14.1665 15.8902V14.1953L14.5459 14.0816C15.0994 13.9157 15.7787 13.452 16.2409 12.9244L16.6457 12.4623L19.2171 12.4528L21.7883 12.4433L22.3742 13.0021ZM3.87735 14.0873C3.58217 14.4152 3.54564 14.5883 3.69622 14.9462C3.91014 15.455 4.22465 15.4967 7.57246 15.4602L10.5413 15.4278L10.7854 15.1439C11.097 14.7814 11.0956 14.4225 10.781 14.1081L10.5327 13.8597H7.30753C4.09108 13.8597 4.08177 13.8603 3.87735 14.0873ZM21.2312 15.9639C21.1374 16.003 20.5527 16.5699 19.9318 17.224L18.803 18.4132L18.3526 17.8662C17.8726 17.2833 17.5733 17.1392 17.1649 17.2944C16.8703 17.4064 16.6963 17.6853 16.6963 18.0456C16.6963 18.3893 18.2255 20.29 18.572 20.3769C18.9481 20.4713 19.1795 20.3059 20.245 19.1813C22.0443 17.2821 22.262 17.0147 22.262 16.7025C22.262 16.1807 21.6922 15.7723 21.2312 15.9639ZM3.87735 16.6166C3.58217 16.9444 3.54564 17.1175 3.69622 17.4755C3.91014 17.9843 4.22465 18.0259 7.57246 17.9894L10.5413 17.957L10.7854 17.6732C11.097 17.3107 11.0956 16.9517 10.781 16.6373L10.5327 16.3889H7.30753C4.09108 16.3889 4.08177 16.3895 3.87735 16.6166ZM3.87735 19.6516C3.58217 19.9795 3.54564 20.1526 3.69622 20.5106C3.91014 21.0193 4.22465 21.061 7.57246 21.0245L10.5413 20.9921L10.7854 20.7082C11.097 20.3458 11.0956 19.9868 10.781 19.6724L10.5327 19.424H7.30753C4.09108 19.424 4.08177 19.4246 3.87735 19.6516Z" fill="#FF931E"/>
</svg>
