<svg width="27" height="31" viewBox="0 0 27 31" fill="none" xmlns="http://www.w3.org/2000/svg">
<path fill-rule="evenodd" clip-rule="evenodd" d="M2.26621 0.131019C1.88392 0.328974 1.70033 0.836967 1.85308 1.27406C2.03451 1.79353 2.41356 1.90694 3.97407 1.90887L5.38398 1.91068V4.61684V7.32299L3.67409 7.36731C2.19626 7.4056 1.89652 7.44763 1.46586 7.67711C0.865538 7.99681 0.262695 8.70058 0.0942256 9.27814C0.0153904 9.5482 -0.0158077 11.6211 0.00759089 15.0179L0.0443086 20.3349L0.437164 21.1379C0.923855 22.1327 1.87216 23.0397 2.8345 23.4308C3.48642 23.6958 3.67505 23.7111 6.28393 23.7111C8.89749 23.7111 9.0806 23.6961 9.73792 23.4291C10.7107 23.0339 11.7334 22.0517 12.1754 21.0881L12.5235 20.3293L12.5603 15.0151C12.5837 11.6203 12.5525 9.5482 12.4736 9.27814C12.3052 8.70058 11.7023 7.99681 11.102 7.67711C10.6713 7.44763 10.3716 7.4056 8.89377 7.36731L7.18387 7.32299V4.6265V1.92989L8.7547 1.89003C10.2371 1.85259 10.3384 1.83423 10.5546 1.56514C10.8472 1.20099 10.8471 0.687806 10.5543 0.323781L10.3252 0.038624L6.4446 0.00758401C3.48054 -0.0160885 2.49384 0.0131397 2.26621 0.131019ZM16.6653 0.131019C16.283 0.328974 16.0994 0.836967 16.2522 1.27406C16.4336 1.79353 16.8127 1.90694 18.3732 1.90887L19.7831 1.91068V4.62819V7.34569L18.3132 7.34642C16.2101 7.34738 15.5498 7.59401 14.8078 8.65601L14.4434 9.17766L14.382 14.7535L14.3206 20.3293L13.7052 22.141C12.8059 24.7889 12.648 25.5926 12.6456 27.5348C12.6435 29.1784 12.6449 29.1863 13.008 29.707C13.4336 30.3173 13.9932 30.7266 14.643 30.9027C14.9388 30.9829 16.8944 31.0155 20.0545 30.9931C24.8936 30.9585 25.0137 30.9519 25.4976 30.6914C26.0574 30.39 26.5816 29.8152 26.8209 29.2406C27.0597 28.667 27.0597 9.69688 26.8209 9.12331C26.5809 8.54707 26.0564 7.97301 25.4976 7.6753C25.0711 7.44787 24.767 7.40548 23.2929 7.36731L21.583 7.32299V4.6265V1.92989L23.1538 1.89003C24.6362 1.85259 24.7375 1.83423 24.9537 1.56514C25.2464 1.20099 25.2462 0.687806 24.9535 0.323781L24.7243 0.038624L20.8437 0.00758401C17.8797 -0.0160885 16.893 0.0131397 16.6653 0.131019ZM10.5349 9.59639C10.7769 9.90607 10.7837 10.0423 10.7837 14.6471C10.7837 20.0088 10.7519 20.2604 9.9773 21.0201C9.20635 21.7763 8.92293 21.8391 6.28393 21.8391C3.64493 21.8391 3.36151 21.7763 2.59055 21.0201C1.816 20.2604 1.7842 20.0088 1.7842 14.6471C1.7842 10.0423 1.79092 9.90607 2.03295 9.59639L2.28157 9.27814H6.28393H10.2863L10.5349 9.59639ZM24.934 9.59639C25.1807 9.91198 25.1828 9.98928 25.1828 19.1819C25.1828 28.3746 25.1807 28.4519 24.934 28.7675L24.6854 29.0857H19.7831H14.8808L14.6187 28.7536C14.3773 28.4475 14.3629 28.3359 14.4361 27.3345C14.5445 25.8513 14.8546 24.4957 15.5424 22.4987L16.1233 20.8124L16.1833 15.2993C16.24 10.0944 16.256 9.772 16.4719 9.53214C16.6954 9.2837 16.7875 9.27814 20.6929 9.27814H24.6854L24.934 9.59639ZM4.0661 11.1202C3.68357 11.3204 3.50034 11.828 3.65297 12.2649C3.85456 12.8418 4.1639 12.9093 6.44472 12.8736C8.46827 12.8419 8.53175 12.8332 8.75458 12.5559C8.88069 12.3992 8.98376 12.1198 8.98376 11.9353C8.98376 11.7507 8.88069 11.4713 8.75458 11.3146C8.53175 11.0373 8.46827 11.0286 6.44472 10.9969C4.92489 10.9731 4.28377 11.0064 4.0661 11.1202ZM18.4652 11.1202C18.0827 11.3204 17.8995 11.828 18.0521 12.2649C18.2537 12.8418 18.563 12.9093 20.8438 12.8736C22.8674 12.8419 22.9309 12.8332 23.1537 12.5559C23.2798 12.3992 23.3829 12.1198 23.3829 11.9353C23.3829 11.7507 23.2798 11.4713 23.1537 11.3146C22.9309 11.0373 22.8674 11.0286 20.8438 10.9969C19.324 10.9731 18.6829 11.0064 18.4652 11.1202ZM4.0661 14.7436C3.68357 14.9437 3.50034 15.4513 3.65297 15.8882C3.85456 16.4652 4.1639 16.5327 6.44472 16.4969C8.46827 16.4653 8.53175 16.4566 8.75458 16.1793C8.88069 16.0225 8.98376 15.7431 8.98376 15.5586C8.98376 15.3741 8.88069 15.0947 8.75458 14.9379C8.53175 14.6606 8.46827 14.6519 6.44472 14.6203C4.92489 14.5965 4.28377 14.6297 4.0661 14.7436ZM18.4652 14.7436C18.0827 14.9437 17.8995 15.4513 18.0521 15.8882C18.2537 16.4652 18.563 16.5327 20.8438 16.4969C22.8674 16.4653 22.9309 16.4566 23.1537 16.1793C23.2798 16.0225 23.3829 15.7431 23.3829 15.5586C23.3829 15.3741 23.2798 15.0947 23.1537 14.9379C22.9309 14.6606 22.8674 14.6519 20.8438 14.6203C19.324 14.5965 18.6829 14.6297 18.4652 14.7436ZM4.0661 18.3669C3.68357 18.5671 3.50034 19.0747 3.65297 19.5115C3.85456 20.0885 4.1639 20.156 6.44472 20.1203C8.46827 20.0886 8.53175 20.0799 8.75458 19.8026C8.88069 19.6458 8.98376 19.3665 8.98376 19.1819C8.98376 18.9974 8.88069 18.718 8.75458 18.5613C8.53175 18.284 8.46827 18.2753 6.44472 18.2436C4.92489 18.2198 4.28377 18.253 4.0661 18.3669ZM18.4652 18.3669C18.0827 18.5671 17.8995 19.0747 18.0521 19.5115C18.2537 20.0885 18.563 20.156 20.8438 20.1203C22.8674 20.0886 22.9309 20.0799 23.1537 19.8026C23.2798 19.6458 23.3829 19.3665 23.3829 19.1819C23.3829 18.9974 23.2798 18.718 23.1537 18.5613C22.9309 18.284 22.8674 18.2753 20.8438 18.2436C19.324 18.2198 18.6829 18.253 18.4652 18.3669ZM18.4652 21.9903C18.0827 22.1904 17.8995 22.698 18.0521 23.1349C18.2537 23.7118 18.563 23.7794 20.8438 23.7436C22.8674 23.712 22.9309 23.7033 23.1537 23.426C23.2798 23.2692 23.3829 22.9898 23.3829 22.8053C23.3829 22.6207 23.2798 22.3414 23.1537 22.1846C22.9309 21.9073 22.8674 21.8986 20.8438 21.867C19.324 21.8432 18.6829 21.8764 18.4652 21.9903ZM16.6653 25.6146C16.2829 25.8134 16.0994 26.3212 16.2522 26.7582C16.4628 27.3611 16.7016 27.4004 19.9439 27.3661C22.9142 27.3346 22.9252 27.3335 23.1537 27.0493C23.2797 26.8925 23.3829 26.6132 23.3829 26.4286C23.3829 26.2441 23.2797 25.9647 23.1537 25.8079C22.9252 25.5238 22.9142 25.5227 19.9439 25.4911C17.7019 25.4675 16.8895 25.498 16.6653 25.6146Z" fill="#FF931E"/>
</svg>
